<svg xmlns="http://www.w3.org/2000/svg" width="96" height="85" viewBox="0 0 96 85"><title>Forma_4</title><path fill="#336" d="M37.103 75.281a2.403 2.403 0 0 0 .7 1.699 2.39 2.39 0 0 0 1.694.703h2.394a2.417 2.417 0 0 0 2.413-2.422c0-1.336-1.08-2.42-2.413-2.42h-2.394c-.641.001-1.255.26-1.705.718s-.698 1.079-.689 1.722m10.79-30.379h2.394a2.416 2.416 0 0 0 2.412-2.42c0-1.337-1.08-2.42-2.412-2.421h-2.394a2.417 2.417 0 0 0-2.412 2.421c0 1.336 1.08 2.42 2.412 2.42m-13.184 0h2.394a2.416 2.416 0 0 0 2.412-2.42c0-1.337-1.08-2.42-2.412-2.421h-2.394a2.417 2.417 0 0 0-2.412 2.421c0 1.336 1.08 2.42 2.412 2.42m15.578 30.379a2.39 2.39 0 0 0 2.393 2.402h2.394a2.417 2.417 0 0 0 2.412-2.422c0-1.336-1.08-2.42-2.412-2.42H52.68a2.39 2.39 0 0 0-1.704.718 2.407 2.407 0 0 0-.689 1.722m13.147 0c0 .637.252 1.248.7 1.699a2.39 2.39 0 0 0 1.694.703h2.393a2.417 2.417 0 0 0 2.413-2.422c0-1.336-1.08-2.42-2.413-2.42h-2.393c-.642.001-1.256.26-1.705.718s-.697 1.079-.689 1.722m-39.515 0c-.001.637.251 1.248.7 1.699s1.059.703 1.693.703h2.394a2.417 2.417 0 0 0 2.412-2.422c0-1.336-1.08-2.42-2.412-2.42h-2.394c-.641.001-1.255.26-1.705.718s-.697 1.079-.688 1.722M2.71 64.822A2.43 2.43 0 0 0 1.451 68c.36.875.797 1.717 1.307 2.514a2.418 2.418 0 0 0 3.314.738 2.461 2.461 0 0 0 .718-3.362 13.282 13.282 0 0 1-.936-1.774 2.392 2.392 0 0 0-2.209-1.479 2.127 2.127 0 0 0-.943.186m8.162 9.46a2.382 2.382 0 0 0 1.728 2.92c.898.251 1.82.412 2.75.48 1.333.109 2.501-.885 2.611-2.222s-.881-2.511-2.213-2.62a8.832 8.832 0 0 1-1.963-.333 3.292 3.292 0 0 0-.593-.073 2.406 2.406 0 0 0-2.32 1.848m.236-27.31c.56-.363 1.151-.672 1.768-.924a2.452 2.452 0 0 0 1.429-2.721 2.442 2.442 0 0 0-2.349-1.974c-.313.007-.622.07-.914.185a16.05 16.05 0 0 0-2.482 1.331 2.42 2.42 0 0 0-.77 3.329 2.405 2.405 0 0 0 3.318.774m10.429-2.071h2.383a2.416 2.416 0 0 0 2.412-2.42 2.417 2.417 0 0 0-2.412-2.421h-2.383a2.417 2.417 0 0 0-2.412 2.421c0 1.336 1.08 2.42 2.412 2.42M2.92 58.244c.635.062 1.269-.133 1.76-.543s.797-1 .851-1.638c.071-.674.194-1.341.369-1.995.167-.618.083-1.277-.235-1.832s-.843-.96-1.459-1.125c-.2-.061-.41-.086-.619-.074a2.391 2.391 0 0 0-2.312 1.773 17.494 17.494 0 0 0-.494 2.81 2.4 2.4 0 0 0 .533 1.765c.406.492.991.803 1.625.859m73.69-46.122h2.394c1.333 0 2.412-1.083 2.412-2.42s-1.079-2.421-2.412-2.421h-2.394c-1.332 0-2.412 1.084-2.412 2.421s1.08 2.42 2.412 2.42m12.889 29.824a14.488 14.488 0 0 0 2.062-1.922c.639-.716.799-1.741.409-2.619s-1.256-1.444-2.214-1.447a2.481 2.481 0 0 0-1.768.813c-.441.493-.922.95-1.436 1.368a2.5 2.5 0 0 0-.405 3.437 2.35 2.35 0 0 0 3.352.37M90.991 25.5v2.402c0 .858.456 1.651 1.196 2.081.741.429 1.654.429 2.395 0s1.197-1.222 1.197-2.081V25.5c0-.858-.457-1.651-1.197-2.081a2.39 2.39 0 0 0-2.395 0 2.407 2.407 0 0 0-1.196 2.081M75.414 44.902h2.394a2.416 2.416 0 0 0 2.412-2.42c0-1.337-1.08-2.42-2.412-2.421h-2.394a2.417 2.417 0 0 0-2.412 2.421c0 1.336 1.08 2.42 2.412 2.42m12.521-27.606a2.354 2.354 0 0 0 3.352.37 2.46 2.46 0 0 0 .368-3.437 19.78 19.78 0 0 0-1.915-2.032 2.458 2.458 0 0 0-1.583-.628 2.394 2.394 0 0 0-1.805.85 2.44 2.44 0 0 0 .184 3.4c.512.445.981.94 1.399 1.477M23.93 12.122h2.394c1.332 0 2.412-1.083 2.412-2.42s-1.08-2.421-2.412-2.421H23.93c-1.333 0-2.412 1.084-2.412 2.421s1.08 2.42 2.412 2.42m26.368 0h2.394c1.332 0 2.412-1.083 2.412-2.42s-1.08-2.421-2.412-2.421h-2.394c-1.332 0-2.412 1.084-2.412 2.421s1.08 2.42 2.412 2.42m13.147 0h2.394c1.332 0 2.412-1.083 2.412-2.42s-1.08-2.421-2.412-2.421h-2.394c-1.332 0-2.412 1.084-2.412 2.421s1.08 2.42 2.412 2.42m-26.331 0h2.394c1.332 0 2.412-1.083 2.412-2.42s-1.08-2.421-2.412-2.421h-2.394c-1.332 0-2.412 1.084-2.412 2.421s1.08 2.42 2.412 2.42m25.153 32.78h2.394a2.416 2.416 0 0 0 2.412-2.42c0-1.337-1.08-2.42-2.412-2.421h-2.394a2.417 2.417 0 0 0-2.412 2.421 2.416 2.416 0 0 0 2.412 2.42m23.936 35.22c1.966.022 3.75-1.149 4.516-2.966s.362-3.917-1.022-5.316a4.83 4.83 0 0 0-5.29-1.067 4.861 4.861 0 0 0-2.99 4.509 4.818 4.818 0 0 0 4.786 4.84m0-14.561a9.684 9.684 0 0 1 9.027 5.924c1.533 3.627.732 7.826-2.028 10.629s-6.936 3.654-10.568 2.157-6.005-5.048-6.005-8.989c-.019-5.334 4.262-9.678 9.574-9.721M9.575 14.562a4.843 4.843 0 0 0 4.511-2.958 4.871 4.871 0 0 0-1.006-5.312 4.829 4.829 0 0 0-5.277-1.091 4.859 4.859 0 0 0-3.015 4.482c-.01 1.284.489 2.519 1.387 3.434s2.12 1.435 3.4 1.445M9.575 0a9.665 9.665 0 0 1 8.998 5.928 9.728 9.728 0 0 1-2.044 10.606 9.644 9.644 0 0 1-10.552 2.133A9.701 9.701 0 0 1 0 9.683a9.667 9.667 0 0 1 2.789-6.832A9.6 9.6 0 0 1 9.575 0"/></svg>