<svg width="96" height="96" viewBox="0 0 96 96" xmlns="http://www.w3.org/2000/svg"><title>ben-01-optimization</title><path d="M74.5 66.6c0-3.4-2.2-6.4-5.4-7.4-.8-.3-1.2-1.1-.9-1.9.3-.7 1.1-1.1 1.8-.9 5.7 1.9 8.8 8 6.9 13.7-1.9 5.7-8 8.8-13.7 6.9-3.3-1.1-5.9-3.7-7-7-.3-.8.1-1.7.9-1.9.8-.3 1.7.1 1.9.9 1.3 4.1 5.7 6.4 9.8 5.1 3.5-1 5.7-4.1 5.7-7.5zm17.1 6.3c2.2-.4 3.8-2.3 3.8-4.6v-3.5c0-2.3-1.6-4.2-3.8-4.6l-3.2-.6c-.4-1.3-.9-2.5-1.5-3.7l1.8-2.6c1.3-1.9 1.1-4.4-.5-6L85.8 45c-1.6-1.6-4.1-1.8-6-.5l-2.6 1.8c-1.1-.5-2.1-1-3.3-1.3-.8-.3-1.6.1-1.9.9-.3.8.1 1.6.9 1.9 1.3.4 2.5.9 3.6 1.6.5.3 1.1.3 1.6-.1l3.4-2.4c.7-.5 1.5-.4 2.1.2l2.4 2.5c.6.6.6 1.5.2 2.1l-2.4 3.4c-.3.5-.4 1.1-.1 1.6.9 1.5 1.5 3.1 2 4.7.2.6.6 1 1.2 1.1l4.1.7c.8.1 1.4.8 1.4 1.6v3.5c0 .8-.6 1.5-1.4 1.6l-4 .8c-.6.1-1 .5-1.2 1.1-.5 1.7-1.1 3.3-2 4.7-.3.5-.3 1.1.1 1.6l2.4 3.4c.5.7.4 1.5-.2 2.1l-2.4 2.5c-.6.6-1.5.6-2.1.2l-3.4-2.4c-.5-.3-1.1-.4-1.6-.1-1.5.9-3.1 1.5-4.7 2-.6.1-1 .6-1.1 1.2l-.8 4.1c-.1.8-.8 1.4-1.6 1.4h-3.5c-.8 0-1.5-.6-1.6-1.4l-.7-4.1c-.1-.6-.5-1-1.1-1.2-1.7-.5-3.2-1.1-4.7-2-.5-.3-1.1-.3-1.6.1l-3.4 2.4c-.7.5-1.5.4-2.1-.2l-2.5-2.4c-.6-.6-.6-1.5-.2-2.1l2.4-3.4c.3-.5.4-1.1.1-1.6-.6-1.1-1.2-2.4-1.6-3.6-.3-.8-1.1-1.2-1.9-.9-.8.3-1.2 1.1-.9 1.9.4 1.1.8 2.2 1.4 3.3l-1.8 2.6c-1.3 1.9-1.1 4.4.5 6l2.5 2.4c1.6 1.6 4.1 1.8 6 .5l2.6-1.8c1.2.6 2.4 1.1 3.7 1.5l.6 3.2c.4 2.2 2.3 3.8 4.6 3.8h3.5c2.3 0 4.2-1.6 4.6-3.8l.6-3.2c1.3-.4 2.5-.9 3.7-1.5l2.6 1.8c1.9 1.3 4.4 1.1 6-.5l2.4-2.4c1.6-1.6 1.8-4.1.5-6L87 77.2c.6-1.2 1.1-2.4 1.5-3.7l3.1-.6zM9 53.7l2.5-3.5c-.9-1.6-1.6-3.3-2.1-5.1l-4.3-.8C2.5 43.8.6 41.6.6 38.9v-4.4c0-2.7 1.9-4.9 4.5-5.4l4.3-.8c.5-1.8 1.2-3.4 2.1-5.1L9 19.8c-1.5-2.2-1.3-5.1.6-7l3.1-3.1c1.9-1.9 4.8-2.1 7-.6l3.5 2.5c1.6-.9 3.3-1.6 5.1-2.1l.8-4.3c.5-2.6 2.7-4.5 5.4-4.5h4.4c2.7 0 4.9 1.9 5.4 4.5l.8 4.3c1.8.5 3.4 1.2 5.1 2.1l3.6-2.5c2.2-1.5 5.1-1.3 7 .6l3.1 3.1c1.9 1.9 2.1 4.8.6 7L62 23.3c.9 1.6 1.6 3.3 2.1 5.1l4.3.8c2.6.5 4.5 2.7 4.5 5.4V39c0 2.7-1.9 5-4.5 5.4l-4.3.8c-.5 1.7-1.2 3.4-2.1 5l2.5 3.5c1.5 2.2 1.3 5.1-.6 7l-3.1 3.1c-1.9 1.9-4.8 2.1-7 .6L50.1 62c-1.6.9-3.3 1.6-5.1 2.1l-.8 4.3c-.5 2.6-2.7 4.5-5.4 4.5h-4.4c-2.7 0-4.9-1.9-5.4-4.5l-.8-4.3c-1.7-.5-3.4-1.2-5-2.1l-3.5 2.5c-2.2 1.5-5.1 1.3-7-.6l-3.2-3.1c-1.8-2-2-4.9-.5-7.1zm2.7 4.9l3.1 3.1c.8.8 2.2 1 3.2.3l4.3-3c.5-.4 1.2-.4 1.7-.1 1.9 1.1 4 2 6.1 2.5.6.2 1 .6 1.1 1.2l.9 5.2c.2 1.2 1.2 2.1 2.5 2.1H39c1.2 0 2.3-.9 2.5-2.1l.9-5.2c.1-.6.5-1 1.1-1.2 2.1-.6 4.2-1.4 6.1-2.5.5-.3 1.1-.2 1.6.1l4.3 3c1 .7 2.3.6 3.2-.3l3.1-3.1c.9-.9 1-2.2.3-3.2l-3-4.3c-.3-.5-.4-1.1-.1-1.6 1.1-1.9 2-4 2.5-6.1.2-.6.6-1 1.2-1.1l5.2-.9c1.2-.2 2.1-1.2 2.1-2.5v-4.4c0-1.2-.9-2.3-2.1-2.5l-5.2-.9c-.6-.1-1-.5-1.2-1.1-.6-2.1-1.4-4.2-2.6-6.1-.3-.5-.3-1.2.1-1.6l3-4.4c.7-1 .6-2.3-.3-3.2l-3.1-3.1c-.9-.9-2.2-1-3.2-.3l-4.3 3c-.5.3-1.1.4-1.6.1-1.9-1.1-4-1.9-6.1-2.5-.6-.2-1-.6-1.1-1.2l-.9-5.2c-.2-1.2-1.2-2.1-2.5-2.1h-4.4c-1.2 0-2.3.9-2.5 2.1l-.9 5.2c-.1.6-.5 1-1.1 1.2-2.1.6-4.2 1.4-6.1 2.5-.5.3-1.1.3-1.6-.1l-4.3-3c-1-.7-2.3-.6-3.2.3l-3.1 3.1c-.8.8-1 2.1-.3 3.1l3 4.3c.4.5.4 1.2.1 1.7-1.1 1.9-2 3.9-2.5 6.1-.2.6-.6 1-1.2 1.1l-5.2.9c-1.2.2-2.1 1.2-2.1 2.5v4.4c0 1.2.9 2.3 2.1 2.5l5.2.9c.6.1 1 .5 1.2 1.1.6 2.1 1.4 4.2 2.5 6.1.3.5.3 1.1-.1 1.6l-3 4.3c-.6 1.1-.5 2.5.3 3.3zm11.6-21.9c0-7.4 6-13.4 13.4-13.4s13.4 6 13.4 13.4-6 13.4-13.4 13.4-13.4-6-13.4-13.4zm3 0c0 5.7 4.6 10.4 10.4 10.4 5.8 0 10.4-4.6 10.4-10.4 0-5.8-4.6-10.4-10.4-10.4-5.7.1-10.3 4.7-10.4 10.4z" fill="#000" fill-rule="evenodd"/></svg>