<svg width="93" height="103" viewBox="0 0 93 103" xmlns="http://www.w3.org/2000/svg"><title>ben-05-time</title><g fill="#000" fill-rule="evenodd"><path d="M46.241 10.168c12.734 0 24.358 5.206 32.64 13.636 8.414 8.431 13.602 19.96 13.602 32.725 0 12.767-5.188 24.422-13.602 32.725-8.404 8.431-19.906 13.637-32.64 13.637-12.733 0-24.357-5.206-32.64-13.637C5.193 80.828 0 69.296 0 56.53c0-12.766 5.193-24.42 13.601-32.725 8.405-8.43 19.907-13.636 32.64-13.636zm28.81 17.478c-7.419-7.438-17.556-12.027-28.81-12.027-11.253 0-21.39 4.59-28.808 12.027-7.418 7.437-11.996 17.6-11.996 28.883a40.701 40.701 0 0 0 11.996 28.884C24.85 92.855 34.988 97.44 46.24 97.44c11.254 0 21.391-4.585 28.81-12.027A40.706 40.706 0 0 0 87.045 56.53 40.715 40.715 0 0 0 75.05 27.646z"/><path d="M45.748 28.017a2.753 2.753 0 0 1 2.723-2.73 2.753 2.753 0 0 1 2.719 2.73v30.494c0 1.488-1.235 2.726-2.719 2.726H27.325c-1.484 0-2.718-1.238-2.718-2.726 0-1.487 1.234-2.725 2.718-2.725h18.423V28.017zM39.194 0h14.221a2.753 2.753 0 0 1 2.719 2.73v6.571c-1.728-.372-3.587-.621-5.442-.87V5.456h-8.78V8.43c-1.854.122-3.708.372-5.44.743V2.73A2.753 2.753 0 0 1 39.193 0zm-25.72 11.777L25.1 5.085c1.361-.744 2.967-.372 3.709.993l2.596 4.585c-1.732.621-3.465 1.238-5.193 1.982l-.864-1.488-6.925 3.968.742 1.365a52.811 52.811 0 0 0-4.45 3.347l-2.475-4.34c-.742-1.365-.37-2.975.99-3.719h.245zm60.59 3.347l-6.925-3.968-.864 1.488a32.06 32.06 0 0 0-5.193-1.982l2.6-4.585a2.673 2.673 0 0 1 3.71-.993l11.625 6.693c1.357.744 1.728 2.481.99 3.72l-2.6 4.462a37.164 37.164 0 0 0-4.325-3.347l.864-1.488h.118z"/></g></svg>