<svg xmlns="http://www.w3.org/2000/svg" viewBox="-1.53 -0.255 24 30"><path d="M10.597 2.324c2.918 0 5.582 1.19 7.48 3.117 1.928 1.927 3.117 4.562 3.117 7.48s-1.189 5.582-3.117 7.48c-1.926 1.927-4.562 3.117-7.48 3.117s-5.582-1.19-7.48-3.117C1.19 18.475 0 15.839 0 12.921s1.19-5.582 3.117-7.48c1.926-1.927 4.562-3.117 7.48-3.117zm6.602 3.995c-1.7-1.7-4.023-2.749-6.602-2.749S5.695 4.619 3.995 6.319s-2.749 4.023-2.749 6.602a9.291 9.291 0 0 0 2.749 6.602c1.7 1.701 4.023 2.749 6.602 2.749s4.902-1.048 6.602-2.749a9.292 9.292 0 0 0 2.749-6.602 9.294 9.294 0 0 0-2.749-6.602z"/><path d="M10.484 6.404a.63.63 0 0 1 .624-.624.63.63 0 0 1 .623.624v6.97c0 .34-.283.623-.623.623H6.262c-.34 0-.623-.283-.623-.623s.283-.623.623-.623h4.222V6.404zM8.982 0h3.259a.63.63 0 0 1 .623.624v1.502c-.396-.085-.822-.142-1.247-.199v-.68H9.605v.68c-.425.028-.85.085-1.247.17V.624A.63.63 0 0 1 8.982 0zM3.088 2.692l2.664-1.53c.312-.17.68-.085.85.227l.595 1.048c-.397.142-.794.283-1.19.453l-.198-.34-1.587.907.17.312a12.1 12.1 0 0 0-1.02.765l-.567-.992c-.17-.312-.085-.68.227-.85h.056zM16.973 3.457l-1.587-.907-.198.34a7.359 7.359 0 0 0-1.19-.453l.596-1.048a.614.614 0 0 1 .85-.227l2.664 1.53c.311.17.396.567.227.85l-.596 1.02a8.514 8.514 0 0 0-.991-.765l.198-.34h.027z"/><text x="-1.53" y="38.745" font-size="5" font-weight="bold" font-family="'Helvetica Neue', Helvetica, Arial-Unicode, Arial, Sans-serif">Created by Mariia Nisiforova</text><text x="-1.53" y="43.745" font-size="5" font-weight="bold" font-family="'Helvetica Neue', Helvetica, Arial-Unicode, Arial, Sans-serif">from the Noun Project</text></svg>