<svg xmlns="http://www.w3.org/2000/svg" width="26" height="23" viewBox="0 0 26 23"><defs><style>.cls-1{fill:#1c3244;fill-rule:evenodd}</style></defs><path id="Forma_4" data-name="Forma 4" class="cls-1" d="M1004.07 1128.37a.649.649 0 0 0 .65.65h.65a.655.655 0 0 0 0-1.31h-.65a.651.651 0 0 0-.65.66m2.93-8.22h.65a.655.655 0 0 0 0-1.31h-.65a.655.655 0 0 0 0 1.31m-3.58 0h.65a.655.655 0 0 0 0-1.31h-.65a.655.655 0 0 0 0 1.31m4.23 8.22a.649.649 0 0 0 .65.65h.65a.655.655 0 0 0 0-1.31h-.65a.651.651 0 0 0-.65.66m3.57 0a.649.649 0 0 0 .65.65h.65a.655.655 0 0 0 0-1.31h-.65a.651.651 0 0 0-.65.66m-10.73 0a.649.649 0 0 0 .65.65h.65a.655.655 0 0 0 0-1.31h-.65a.651.651 0 0 0-.65.66m-5.759-2.83a.657.657 0 0 0-.342.86 4.291 4.291 0 0 0 .355.68.658.658 0 0 0 .9.2.665.665 0 0 0 .195-.91 3.559 3.559 0 0 1-.254-.48.649.649 0 0 0-.6-.4.577.577 0 0 0-.256.05m2.216 2.56a.644.644 0 0 0 .469.79 3.807 3.807 0 0 0 .747.13.657.657 0 0 0 .108-1.31 2.426 2.426 0 0 1-.533-.09.9.9 0 0 0-.161-.02.653.653 0 0 0-.63.5m.064-7.39a2.918 2.918 0 0 1 .48-.25.662.662 0 0 0-.25-1.27.721.721 0 0 0-.248.05 4.362 4.362 0 0 0-.674.36.654.654 0 0 0 .692 1.11m2.832-.56h.647a.655.655 0 0 0 0-1.31h-.647a.655.655 0 0 0 0 1.31m-5.053 3.61a.648.648 0 0 0 .709-.59 3.514 3.514 0 0 1 .1-.54.651.651 0 0 0-.46-.8.487.487 0 0 0-.168-.02.649.649 0 0 0-.628.48 4.722 4.722 0 0 0-.134.76.647.647 0 0 0 .586.71m20.01-12.48h.65a.655.655 0 0 0 0-1.31h-.65a.655.655 0 0 0 0 1.31m3.5 8.07a3.924 3.924 0 0 0 .56-.52.66.66 0 0 0-.49-1.1.672.672 0 0 0-.48.22 3.412 3.412 0 0 1-.39.37.675.675 0 0 0-.11.93.64.64 0 0 0 .91.1m.4-4.45v.65a.65.65 0 1 0 1.3 0v-.65a.65.65 0 1 0-1.3 0m-4.23 5.25h.65a.655.655 0 0 0 0-1.31h-.65a.655.655 0 0 0 0 1.31m3.4-7.47a.64.64 0 0 0 .91.1.664.664 0 0 0 .1-.93 5.38 5.38 0 0 0-.52-.55.67.67 0 0 0-.43-.17.651.651 0 0 0-.49.23.659.659 0 0 0 .05.92 2.863 2.863 0 0 1 .38.4m-17.38-1.4h.65a.655.655 0 0 0 0-1.31h-.65a.655.655 0 0 0 0 1.31m7.16 0h.65a.655.655 0 0 0 0-1.31h-.65a.655.655 0 0 0 0 1.31m3.57 0h.65a.655.655 0 0 0 0-1.31h-.65a.655.655 0 0 0 0 1.31m-7.15 0h.65a.655.655 0 0 0 0-1.31h-.65a.655.655 0 0 0 0 1.31m6.83 8.87h.65a.655.655 0 0 0 0-1.31h-.65a.655.655 0 0 0 0 1.31m6.5 9.53a1.315 1.315 0 1 0-1.3-1.31 1.306 1.306 0 0 0 1.3 1.31m0-3.94a2.63 2.63 0 1 1-2.6 2.63 2.621 2.621 0 0 1 2.6-2.63m-20.808-13.8a1.315 1.315 0 1 0-1.3-1.32 1.31 1.31 0 0 0 1.3 1.32m0-3.94a2.625 2.625 0 1 1-2.6 2.62 2.61 2.61 0 0 1 2.6-2.62" transform="translate(-994 -1108)"/></svg>