<svg xmlns="http://www.w3.org/2000/svg" viewBox="0 0 64.5 65"><path d="M29.9 26.1c-.4.4-.9 1-1.5 1.8s-1.3 1.6-2 2.5c-.7.9-1.4 1.9-2.2 2.9-.7 1-1.4 2-1.9 2.9h7.8v2.1H19.2v-1.7c.4-.8 1-1.7 1.6-2.7.6-1 1.3-1.9 2-2.9s1.4-1.9 2.1-2.7 1.2-1.6 1.7-2.1h-7v-2.1h10.3v2zM51.6 17.2c-.2.2-.4.4-.6.7s-.5.7-.8 1.1l-.9 1.2c-.3.4-.6.8-.8 1.2h3.3v.9h-4.5v-.7c.2-.3.4-.7.7-1.1s.5-.8.8-1.2c.3-.4.6-.8.9-1.1s.5-.7.7-.9h-2.9v-.9h4.3v.8zM42.3 21.5c-.3.3-.6.7-1 1.2s-.9 1.1-1.4 1.8-1 1.3-1.5 2-.9 1.4-1.3 2h5.4V30H35v-1.2c.3-.6.7-1.2 1.1-1.8.4-.7.9-1.3 1.4-2 .5-.7 1-1.3 1.4-1.9.5-.6.9-1.1 1.2-1.5h-4.8v-1.5h7.1v1.4z"/></svg>