<svg xmlns="http://www.w3.org/2000/svg" width="96" height="64" viewBox="0 0 96 64"><title>Shape</title><path fill="#336" d="M31.509 28.347c-1.178 1.169-2.65 2.922-4.417 5.26-1.767 2.338-3.828 4.676-5.889 7.306-2.062 2.63-4.123 5.553-6.479 8.476-2.062 2.922-4.123 5.844-5.595 8.475h22.969V64H0v-4.969c1.178-2.338 2.945-4.967 4.712-7.89s3.828-5.553 5.889-8.476c2.062-2.922 4.123-5.552 6.184-7.89 2.062-2.338 3.534-4.676 5.006-6.137H1.178v-6.137H31.51v5.846h-.001zM95.411 2.338c-.589.584-1.179 1.169-1.767 2.046-.59.876-1.473 2.045-2.355 3.214l-2.65 3.507c-.885 1.169-1.768 2.338-2.356 3.507H96v2.63H82.748v-2.046c.59-.876 1.178-2.045 2.062-3.214s1.473-2.338 2.356-3.507c.883-1.169 1.767-2.338 2.65-3.215.883-.876 1.473-2.045 2.061-2.63h-8.539V0H96v2.338h-.589zM68.024 14.904c-.884.876-1.767 2.045-2.944 3.507-1.178 1.461-2.65 3.214-4.123 5.26-1.473 2.045-2.945 3.799-4.417 5.845-1.473 2.045-2.65 4.091-3.829 5.845h15.902v4.383H46.528v-3.507c.883-1.753 2.061-3.507 3.24-5.26 1.178-2.045 2.649-3.799 4.122-5.845 1.472-2.045 2.944-3.799 4.122-5.552 1.473-1.753 2.65-3.215 3.534-4.384H47.411v-4.383h20.907v4.091h-.294z"/></svg>