<svg xmlns="http://www.w3.org/2000/svg" width="96" height="79" viewBox="0 0 96 79"><title>ben-07-up</title><path fill="#336" d="M22.6 60.6l14.6-17 19.4 9.6c2.801 1.399 6.4.399 8-2.4l20.8-36.4 2.399 8.2c.601 2.2 2.8 3.4 5 2.8s3.4-2.8 2.8-5L90.6 3C90 .8 87.8-.4 85.6.2l-17.4 5c-2.2.6-3.4 2.8-2.8 5 .6 2.2 2.8 3.4 5 2.8l8-2.2-19.8 34.8-18.8-9.4c-2.6-1.4-6-.6-8 1.6l-15.4 18c-1.4-.6-2.8-.8-4.4-.8-6.6 0-12 5.4-12 12s5.4 12 12 12 12-5.4 12-12c.2-2.6-.2-4.8-1.4-6.4zM8.2 66.4c0-2.2 1.8-4 4-4s4 1.8 4 4c0 2.199-1.8 4-4 4s-4-1.6-4-4z"/></svg>