<svg xmlns="http://www.w3.org/2000/svg" width="93" height="103" viewBox="0 0 93 103"><title>ben-05-time</title><g fill="#336"><path d="M46.241 10.167c12.733 0 24.358 5.206 32.64 13.637 8.414 8.431 13.602 19.959 13.602 32.725 0 12.766-5.188 24.422-13.602 32.725-8.404 8.432-19.906 13.637-32.64 13.637-12.733 0-24.357-5.205-32.64-13.637C5.193 80.828 0 69.295 0 56.529c0-12.766 5.193-24.421 13.602-32.725 8.404-8.43 19.906-13.637 32.639-13.637zm28.81 17.479c-7.419-7.438-17.556-12.027-28.81-12.027-11.253 0-21.39 4.589-28.809 12.027-7.417 7.437-11.995 17.6-11.995 28.883a40.7 40.7 0 0 0 11.996 28.884c7.418 7.442 17.555 12.026 28.809 12.026 11.254 0 21.391-4.584 28.81-12.026a40.705 40.705 0 0 0 11.995-28.884 40.726 40.726 0 0 0-11.996-28.883z"/><path d="M45.749 28.018a2.752 2.752 0 0 1 2.722-2.73 2.753 2.753 0 0 1 2.719 2.73v30.494c0 1.486-1.234 2.725-2.719 2.725H27.325c-1.484 0-2.719-1.238-2.719-2.725 0-1.488 1.235-2.727 2.719-2.727h18.423V28.018h.001zM39.194 0h14.221a2.753 2.753 0 0 1 2.719 2.73v6.571c-1.728-.372-3.587-.621-5.441-.871V5.456h-8.78v2.975a38.233 38.233 0 0 0-5.441.744V2.73A2.75 2.75 0 0 1 39.194 0zM13.475 11.777L25.1 5.084c1.361-.744 2.967-.372 3.709.993l2.597 4.585c-1.732.621-3.465 1.238-5.193 1.981l-.864-1.487-6.925 3.968.742 1.365a53.052 53.052 0 0 0-4.451 3.347l-2.474-4.34c-.742-1.365-.371-2.975.99-3.719h.244zm60.589 3.348l-6.926-3.968-.863 1.487a31.96 31.96 0 0 0-5.193-1.981l2.602-4.585a2.671 2.671 0 0 1 3.709-.992l11.624 6.693c1.357.744 1.728 2.481.991 3.719l-2.602 4.463a37.125 37.125 0 0 0-4.324-3.347l.864-1.487h.118v-.002z"/></g></svg>