<svg width="96" height="85" viewBox="0 0 96 85" xmlns="http://www.w3.org/2000/svg"><title>Forma_4</title><path d="M37.103 75.28c-.001.638.25 1.25.7 1.7.45.451 1.058.704 1.694.703h2.393a2.416 2.416 0 0 0 2.413-2.42c0-1.338-1.08-2.421-2.413-2.421h-2.393c-.641 0-1.255.26-1.705.717a2.41 2.41 0 0 0-.69 1.722m10.791-30.378h2.394a2.416 2.416 0 0 0 2.412-2.421c0-1.337-1.08-2.42-2.412-2.42h-2.394a2.416 2.416 0 0 0-2.412 2.42c0 1.337 1.08 2.42 2.412 2.42m-13.184 0h2.394a2.416 2.416 0 0 0 2.412-2.42c0-1.337-1.08-2.42-2.412-2.42h-2.394a2.416 2.416 0 0 0-2.412 2.42c0 1.337 1.08 2.42 2.412 2.42m15.578 30.379c-.001.637.25 1.249.7 1.7.449.45 1.058.703 1.694.702h2.393a2.416 2.416 0 0 0 2.412-2.42c0-1.338-1.08-2.421-2.412-2.421h-2.393c-.641 0-1.255.26-1.705.717a2.41 2.41 0 0 0-.69 1.722m13.148 0c-.001.637.25 1.249.7 1.7.45.45 1.059.703 1.694.702h2.393a2.416 2.416 0 0 0 2.413-2.42c0-1.338-1.08-2.421-2.413-2.421h-2.393c-.641 0-1.255.26-1.705.717a2.41 2.41 0 0 0-.69 1.722m-39.514 0c-.001.637.25 1.249.7 1.7.45.45 1.059.703 1.694.702h2.393a2.416 2.416 0 0 0 2.413-2.42c0-1.338-1.08-2.421-2.413-2.421h-2.393c-.641 0-1.255.26-1.705.717a2.41 2.41 0 0 0-.689 1.722M2.711 64.822A2.431 2.431 0 0 0 1.45 68c.36.876.798 1.717 1.307 2.513a2.418 2.418 0 0 0 3.315.74 2.463 2.463 0 0 0 .718-3.364c-.356-.566-.67-1.16-.935-1.773a2.39 2.39 0 0 0-2.21-1.479 2.118 2.118 0 0 0-.943.185m8.16 9.461a2.387 2.387 0 0 0 .254 1.823c.325.55.856.944 1.474 1.097.899.251 1.82.412 2.751.48a2.423 2.423 0 0 0 2.611-2.221 2.426 2.426 0 0 0-2.213-2.62 8.906 8.906 0 0 1-1.963-.333 3.303 3.303 0 0 0-.593-.074 2.407 2.407 0 0 0-2.32 1.848m.236-27.31c.56-.363 1.15-.672 1.767-.925a2.448 2.448 0 0 0-.92-4.693c-.313.007-.622.07-.914.185-.864.37-1.695.814-2.482 1.33a2.422 2.422 0 0 0-.77 3.33 2.404 2.404 0 0 0 3.319.772m10.429-2.07h2.383a2.416 2.416 0 0 0 2.412-2.42c0-1.337-1.08-2.42-2.412-2.42h-2.383a2.416 2.416 0 0 0-2.412 2.42c0 1.337 1.08 2.42 2.412 2.42M2.92 58.245a2.38 2.38 0 0 0 1.76-.543c.49-.41.797-1 .851-1.638.071-.673.194-1.34.369-1.995a2.413 2.413 0 0 0-.235-1.832 2.399 2.399 0 0 0-1.46-1.125c-.2-.06-.41-.085-.618-.074a2.391 2.391 0 0 0-2.313 1.774c-.24.921-.405 1.86-.493 2.809a2.397 2.397 0 0 0 .533 1.764c.405.493.99.803 1.625.86m73.69-46.122h2.394a2.416 2.416 0 0 0 2.412-2.42c0-1.337-1.08-2.421-2.412-2.421h-2.394a2.416 2.416 0 0 0-2.412 2.42c0 1.337 1.08 2.421 2.412 2.421m12.89 29.824a14.47 14.47 0 0 0 2.062-1.922 2.446 2.446 0 0 0 .408-2.618 2.43 2.43 0 0 0-2.213-1.447 2.471 2.471 0 0 0-1.768.813c-.442.493-.922.95-1.436 1.368a2.5 2.5 0 0 0-.405 3.436 2.355 2.355 0 0 0 3.351.37M90.991 25.5v2.403c0 .858.457 1.65 1.197 2.08.74.429 1.653.429 2.394 0a2.404 2.404 0 0 0 1.197-2.08V25.5c0-.858-.456-1.65-1.197-2.08a2.386 2.386 0 0 0-2.394 0 2.404 2.404 0 0 0-1.197 2.08M75.414 44.903h2.393a2.416 2.416 0 0 0 2.413-2.421c0-1.337-1.08-2.42-2.413-2.42h-2.393a2.416 2.416 0 0 0-2.412 2.42c0 1.337 1.08 2.42 2.412 2.42m12.52-27.606a2.355 2.355 0 0 0 3.352.37 2.46 2.46 0 0 0 .368-3.437 19.854 19.854 0 0 0-1.915-2.033 2.463 2.463 0 0 0-1.583-.628 2.394 2.394 0 0 0-1.805.85 2.442 2.442 0 0 0 .184 3.4c.513.446.982.941 1.4 1.478M23.93 12.122h2.394a2.416 2.416 0 0 0 2.412-2.42c0-1.337-1.08-2.421-2.412-2.421H23.93a2.416 2.416 0 0 0-2.412 2.42c0 1.337 1.08 2.421 2.412 2.421m26.368 0h2.394a2.416 2.416 0 0 0 2.412-2.42c0-1.337-1.08-2.421-2.412-2.421h-2.394a2.416 2.416 0 0 0-2.412 2.42c0 1.337 1.08 2.421 2.412 2.421m13.147 0h2.394a2.416 2.416 0 0 0 2.412-2.42c0-1.337-1.08-2.421-2.412-2.421h-2.394a2.416 2.416 0 0 0-2.412 2.42c0 1.337 1.08 2.421 2.412 2.421m-26.331 0h2.394a2.416 2.416 0 0 0 2.412-2.42c0-1.337-1.08-2.421-2.412-2.421h-2.394a2.416 2.416 0 0 0-2.412 2.42c0 1.337 1.08 2.421 2.412 2.421m25.153 32.78h2.393a2.416 2.416 0 0 0 2.412-2.42c0-1.337-1.08-2.42-2.412-2.42h-2.393a2.416 2.416 0 0 0-2.413 2.42c0 1.337 1.08 2.42 2.413 2.42m23.937 35.22a4.842 4.842 0 0 0 4.515-2.965 4.872 4.872 0 0 0-1.023-5.318 4.83 4.83 0 0 0-5.29-1.066 4.86 4.86 0 0 0-2.99 4.508c-.008 2.663 2.134 4.829 4.788 4.841m0-14.56a9.684 9.684 0 0 1 9.026 5.922 9.745 9.745 0 0 1-2.028 10.63 9.66 9.66 0 0 1-10.568 2.157 9.72 9.72 0 0 1-6.005-8.99c-.018-5.333 4.261-9.677 9.575-9.72m-76.629-51a4.842 4.842 0 0 0 4.511-2.957 4.872 4.872 0 0 0-1.005-5.312 4.83 4.83 0 0 0-5.278-1.09 4.86 4.86 0 0 0-3.015 4.481 4.85 4.85 0 0 0 1.386 3.434 4.816 4.816 0 0 0 3.401 1.444m0-14.56a9.666 9.666 0 0 1 8.998 5.928 9.726 9.726 0 0 1-2.044 10.605 9.642 9.642 0 0 1-10.553 2.133A9.701 9.701 0 0 1 0 9.683a9.663 9.663 0 0 1 2.79-6.831A9.595 9.595 0 0 1 9.574 0" fill="#1C3244" fill-rule="evenodd"/></svg>