<svg width="58" height="94" viewBox="0 0 58 94" xmlns="http://www.w3.org/2000/svg"><title>ben-03-lock</title><g fill="#000" fill-rule="evenodd"><path d="M28.847 6.33h.52c9.198 0 16.66 6.11 16.66 13.615h5.9C51.926 9.124 41.861.396 29.366.396h-.52c-12.494 0-22.559 8.728-22.559 19.55v20.77c-3.817 4.19-6.247 9.6-6.247 15.36v12.742c0 13.615 12.841 24.786 28.633 24.786h.694C45.158 93.604 58 82.433 58 68.818V56.076c0-13.614-12.841-24.785-28.632-24.785h-.694c-6.248 0-11.974 1.745-16.66 4.538V19.945c0-7.505 7.636-13.614 16.833-13.614zm-.173 30.895h.694c12.494 0 22.732 8.379 22.732 18.851v12.742c0 10.298-10.238 18.851-22.732 18.851h-.694c-12.495 0-22.733-8.378-22.733-18.85V56.075c0-10.298 10.238-18.85 22.733-18.85z"/><path d="M26.07 55.03h5.9v16.755h-5.9z"/></g></svg>