<svg width="49" height="115" viewBox="0 0 49 115" xmlns="http://www.w3.org/2000/svg"><title>feat-01-hand</title><g fill="#2BB0AF" fill-rule="evenodd"><path d="M16.067 76.36a.903.903 0 0 0-.911-.92c-.57 0-.912.46-.912.92 0 3.105 2.507 5.635 5.698 5.635.57 0 .911-.46.911-.92a.903.903 0 0 0-.911-.92c-2.28 0-3.875-1.725-3.875-3.795zM47.063 114.08c0 .575.456.92.911.92.456 0 .912-.46.912-.92V66.93a.903.903 0 0 0-.912-.92c-.455 0-.911.46-.911.92v47.15zM30.198 104.65a.903.903 0 0 0-.912-.92c-.456 0-.912.46-.912.92v9.43c0 .575.456.92.912.92s.912-.46.912-.92v-9.43z"/><path d="M20.74 57.5a.903.903 0 0 0-.912-.92c-.456 0-.912.46-.912.92v28.29c0 .575.456.92.912.92s.912-.46.912-.92V57.5zM30.198 57.5a.903.903 0 0 0-.912-.92c-.456 0-.912.46-.912.92v14.145c0 .575.456.92.912.92s.912-.46.912-.92V57.5zM39.428 52.21c-.342-.345-.912-.345-1.368 0-.341.345-.341.92 0 1.38l4.559 4.6c.341.345.911.345 1.367 0 .342-.345.342-.92 0-1.38l-4.558-4.6z"/><path d="M48.316 61.755c-.57-1.15-1.253-1.955-4.33-4.945-.342-.345-.912-.345-1.367 0-.342.345-.342.92 0 1.38 2.848 2.875 3.532 3.565 3.988 4.485.456.805.456 1.495.456 4.255 0 .575.456.92.911.92.456 0 .912-.46.912-.92.114-3.105 0-3.91-.57-5.175zM29.514 99.475c-.57-1.15-1.254-1.955-4.33-4.945-.342-.345-.912-.345-1.368 0-.342.345-.342.92 0 1.38 2.85 2.875 3.533 3.565 3.989 4.485.455.805.455 1.495.455 4.255 0 .575.456.92.912.92s.912-.46.912-.92c.114-3.105 0-3.91-.57-5.175z"/><path d="M19.486 90.965c.57 1.15 1.254 1.955 4.33 4.945.342.345.912.345 1.368 0 .342-.345.342-.92 0-1.38-2.85-2.875-3.533-3.565-3.989-4.485-.455-.805-.455-1.495-.455-4.255a.903.903 0 0 0-.912-.92c-.456 0-.912.46-.912.92-.114 3.105 0 3.91.57 5.175zM19.828 20.7c3.532 0 6.837 1.38 9.344 3.91.342.345.912.345 1.368 0 .341-.345.341-.92 0-1.38-2.85-2.76-6.61-4.37-10.712-4.37-4.102 0-7.863 1.61-10.712 4.37-.342.345-.342.92 0 1.38.342.345.912.345 1.368 0 2.393-2.415 5.811-3.91 9.344-3.91z"/><path d="M19.828 25.415c2.279 0 4.444.92 6.04 2.53.341.345.911.345 1.367 0 .342-.345.342-.92 0-1.38-1.937-1.955-4.558-2.99-7.293-2.99-2.735 0-5.356 1.15-7.293 2.99-.342.345-.342.92 0 1.38.342.345.911.345 1.367 0 1.368-1.61 3.533-2.53 5.812-2.53z"/><path d="M19.828 30.13c1.025 0 1.937.345 2.62 1.15.343.345.912.345 1.368 0 .456-.345.342-.92 0-1.38-1.025-1.035-2.507-1.61-3.988-1.61-1.481 0-2.963.575-3.988 1.61-.342.345-.342.92 0 1.38.341.46.911.345 1.367 0 .57-.69 1.595-1.15 2.62-1.15zM14.13 76.36c0 .575.456.92.912.92.57 0 .911-.46.911-.92v-4.715a.903.903 0 0 0-.911-.92c-.57 0-.912.46-.912.92v4.715zM28.26 76.36c0 .575.456.92.912.92s.912-.46.912-.92v-4.715a.903.903 0 0 0-.912-.92c-.456 0-.912.46-.912.92v4.715z"/><path d="M5.698 61.295l.911.92V10.35l-.911.92h28.26l-1.025-.92v51.865l.911-.92h-4.672c-.57 0-.912.46-.912.92 0 .575.456.92.912.92h4.672c.57 0 .912-.46.912-.92V10.35a.903.903 0 0 0-.912-.92H5.698c-.57 0-1.026.46-1.026.92v51.865c0 .575.456.92.912.92h14.13c.57 0 .912-.46.912-.92a.903.903 0 0 0-.912-.92H5.698z"/><path d="M5.698 70.725c-2.051 0-3.76-1.725-3.76-3.795V5.635c0-2.07 1.709-3.795 3.76-3.795h28.26c2.051 0 3.76 1.725 3.76 3.795V66.93c0 2.07-1.709 3.795-3.76 3.795h-4.672c-.57 0-.912.46-.912.92s.456.92.912.92h4.672c3.077 0 5.698-2.53 5.698-5.635V5.635C39.656 2.53 37.149 0 33.958 0H5.698C2.507 0 0 2.53 0 5.635V66.93c0 3.105 2.507 5.635 5.698 5.635h14.13c.57 0 .912-.46.912-.92s-.456-.92-.912-.92H5.698z"/><path d="M24.5 6.555c.57 0 .912-.46.912-.92s-.342-.92-.912-.92h-9.458c-.57 0-.912.46-.912.92s.456.92.912.92H24.5zM24.5 53.705c2.051 0 3.76 1.725 3.76 3.795 0 .575.456.92.912.92s.912-.46.912-.92c0-3.105-2.507-5.635-5.698-5.635-3.19 0-5.698 2.53-5.698 5.635 0 .575.456.92.912.92s.912-.46.912-.92c.228-2.07 1.937-3.795 3.988-3.795z"/></g></svg>