<svg width="75" height="115" viewBox="0 0 75 115" xmlns="http://www.w3.org/2000/svg"><title>gps blue</title><g fill="#2BB0AF" fill-rule="evenodd"><path d="M48 45.623l-8.25-8.107 7.969-7.823c.281-.283.468-.66.468-1.132 0-.47-.187-.848-.468-1.13l-9.094-8.956c-.469-.47-1.125-.565-1.781-.282a1.68 1.68 0 0 0-.938 1.508v13.95l-6.562-6.503c-.657-.66-1.688-.566-2.25 0-.657.66-.563 1.696 0 2.262l8.062 8.012L27 45.53c-.656.66-.656 1.696 0 2.262.656.66 1.688.66 2.25 0l6.563-6.504v14.705c0 .66.374 1.225.937 1.508.188.094.469.094.656.094.469 0 .844-.188 1.125-.471l9.375-9.238c.282-.283.469-.66.469-1.13.188-.472 0-.85-.375-1.132zm-8.719-22.152l5.157 5.09-5.157 5.09v-10.18zm0 28.656V41.381l5.438 5.279-5.438 5.467z"/><path d="M37.594 4.053c18.093 0 32.718 14.8 32.718 32.898 0 3.016-.374 5.938-1.218 8.766-.281 1.131-.75 2.357-1.125 3.3l-.938 2.167L37.5 106.045 7.969 51.28l-1.032-2.263c-.375-1.036-.75-2.168-1.125-3.299-.75-2.828-1.218-5.844-1.218-8.766.187-18.099 14.906-32.898 33-32.898zm0-4.053C17.25 0 .75 16.59.75 37.045c0 3.394.469 6.787 1.313 9.898.374 1.225.75 2.45 1.218 3.676l1.125 2.545L37.5 114.717 70.688 53.07l1.03-2.263a46.648 46.648 0 0 0 1.313-3.864 38.193 38.193 0 0 0 1.313-9.898C74.25 16.59 57.938 0 37.594 0z"/></g></svg>