<svg width="138" height="114" viewBox="0 0 138 114" xmlns="http://www.w3.org/2000/svg"><title>feat-06-up</title><path d="M32.487 87.55l20.988-24.438 27.887 13.8c4.026 2.013 9.2.575 11.5-3.45l29.9-52.325 3.45 11.788c.863 3.163 4.026 4.888 7.188 4.025 3.162-.863 4.887-4.025 4.025-7.188L130.237 4.75c-.862-3.163-4.024-4.888-7.187-4.025L98.037 7.913c-3.162.862-4.887 4.024-4.025 7.187.863 3.162 4.025 4.888 7.188 4.025l11.5-3.162-28.463 50.025-27.024-13.513c-3.738-2.013-8.626-.863-11.5 2.3L23.574 80.65c-2.012-.863-4.025-1.15-6.325-1.15C7.762 79.5 0 87.263 0 96.75S7.763 114 17.25 114c9.488 0 17.25-7.763 17.25-17.25.288-3.737-.288-6.9-2.013-9.2zm-20.7 8.338c0-3.163 2.588-5.75 5.75-5.75 3.163 0 5.75 2.587 5.75 5.75 0 3.162-2.587 5.75-5.75 5.75-3.162 0-5.75-2.3-5.75-5.75z" fill="#2BB0AF" fill-rule="evenodd"/></svg>