<svg xmlns="http://www.w3.org/2000/svg" width="107.158" height="97.719" viewBox="-32.242 0.805 107.158 97.719"><path fill="#399" d="M-4.198 59.302L-15.04 48.728-4.6 38.554c.401-.403.669-.804.669-1.473s-.268-1.07-.669-1.473l-11.914-11.646c-.669-.67-1.472-.804-2.276-.401-.803.401-1.204 1.071-1.204 2.007V43.64l-8.569-8.433c-.803-.802-2.276-.802-2.944 0-.803.804-.803 2.275 0 2.944l10.575 10.443-10.708 10.574c-.803.802-.803 2.276 0 2.945.802.803 2.275.803 2.944 0l8.567-8.434v19.145c0 .802.536 1.604 1.205 2.006.268.134.669.134.802.134.67 0 1.072-.268 1.474-.669l12.315-12.048c.401-.401.669-.803.669-1.475.135-.668-.133-1.07-.534-1.47zm-11.511-28.914l6.693 6.693-6.693 6.693V30.388zm0 37.346V53.68l7.094 6.825-7.094 7.229zM43.458 4.285c15.525 0 28.109 12.583 28.109 28.112 0 2.542-.401 5.086-1.07 7.495-.268.938-.669 2.008-.937 2.812l-.802 1.874-25.3 46.717-25.301-46.717-.804-1.874c-.401-.938-.669-1.875-.936-2.812-.669-2.409-1.072-4.953-1.072-7.495 0-15.53 12.585-28.112 28.113-28.112m0-3.48c-17.401 0-31.593 14.188-31.593 31.591 0 2.944.401 5.754 1.205 8.433.267 1.07.67 2.142 1.071 3.212l.936 2.142 28.381 52.341 28.377-52.608.802-2.008c.401-1.07.803-2.142 1.07-3.346.807-2.678 1.208-5.489 1.208-8.433C75.049 14.859 60.86.805 43.458.805z"/><path fill="#399" d="M43.458 21.554c5.755 0 10.44 4.685 10.44 10.441 0 5.755-4.686 10.441-10.44 10.441-5.758 0-10.442-4.687-10.442-10.441 0-5.756 4.684-10.441 10.442-10.441m0-3.481c-7.764 0-13.923 6.292-13.923 13.922 0 7.629 6.159 14.055 13.923 14.055 7.765 0 13.921-6.292 13.921-13.921 0-7.63-6.156-14.056-13.921-14.056z"/></svg>