<svg width="115" height="115" viewBox="0 0 115 115" xmlns="http://www.w3.org/2000/svg"><title>feat-04-radar</title><g fill="#2BB0AF" fill-rule="evenodd"><path d="M57.5 3.833c-29.517 0-53.667 24.15-53.667 53.667 0 29.517 24.15 53.667 53.667 53.667 29.517 0 53.667-24.15 53.667-53.667 0-29.517-24.15-53.667-53.667-53.667M57.5 115C25.875 115 0 89.317 0 57.5S25.875 0 57.5 0 115 25.875 115 57.5 89.125 115 57.5 115"/><path d="M57.5 95.833c-10.158 0-19.933-4.025-27.025-11.308-.767-.767-.767-1.917 0-2.683.767-.767 1.917-.767 2.683 0C39.675 88.55 48.3 92 57.5 92 76.475 92 92 76.475 92 57.5S76.475 23 57.5 23 23 38.525 23 57.5c0 1.917.192 3.833.383 5.558.192.959-.575 2.109-1.533 2.109-1.15.191-2.108-.575-2.108-1.534-.384-1.916-.575-4.025-.575-6.133 0-21.083 17.25-38.333 38.333-38.333S95.833 36.417 95.833 57.5 78.583 95.833 57.5 95.833"/><path d="M57.5 76.667c-5.175 0-9.967-1.917-13.608-5.559-.767-.766-.767-1.916 0-2.683.766-.767 1.916-.767 2.683 0 2.875 2.875 6.708 4.408 10.925 4.408 8.433 0 15.333-6.9 15.333-15.333s-6.9-15.333-15.333-15.333-15.333 6.9-15.333 15.333c0 .767 0 1.725.191 2.492.192.958-.575 2.108-1.533 2.108-.958.192-2.108-.575-2.108-1.533-.384-.959-.384-1.917-.384-3.067 0-10.542 8.625-19.167 19.167-19.167 10.542 0 19.167 8.625 19.167 19.167 0 10.542-8.625 19.167-19.167 19.167"/><path d="M24.917 92c-.575 0-.959-.192-1.342-.575-.767-.767-.767-1.917 0-2.683l28.558-28.559c.767-.766 1.917-.766 2.684 0 .766.767.766 1.917 0 2.684L26.258 91.425c-.383.383-.766.575-1.341.575M21.083 36.417a3.845 3.845 0 0 0-3.833-3.834 3.845 3.845 0 0 0-3.833 3.834 3.845 3.845 0 0 0 3.833 3.833 3.845 3.845 0 0 0 3.833-3.833M80.5 74.75a3.845 3.845 0 0 0-3.833-3.833 3.845 3.845 0 0 0-3.834 3.833 3.845 3.845 0 0 0 3.834 3.833A3.845 3.845 0 0 0 80.5 74.75M86.25 21.083a3.845 3.845 0 0 0-3.833-3.833 3.845 3.845 0 0 0-3.834 3.833 3.845 3.845 0 0 0 3.834 3.834 3.845 3.845 0 0 0 3.833-3.834"/><path d="M57.5 53.667a3.845 3.845 0 0 0-3.833 3.833 3.845 3.845 0 0 0 3.833 3.833 3.845 3.845 0 0 0 3.833-3.833 3.845 3.845 0 0 0-3.833-3.833m0 11.5c-4.217 0-7.667-3.45-7.667-7.667s3.45-7.667 7.667-7.667 7.667 3.45 7.667 7.667-3.45 7.667-7.667 7.667"/></g></svg>