<svg xmlns="http://www.w3.org/2000/svg" width="65.335" height="118.47" viewBox="-12.206 -9.607 65.335 118.47"><title>Noun Project</title><g fill="#399"><path d="M20.463 24.189c5.819 0 11.265 2.251 15.396 6.383.562.563 1.501.563 2.251 0 .562-.562.562-1.503 0-2.253-4.694-4.507-10.89-7.136-17.647-7.136-6.762 0-12.957 2.629-17.65 7.136-.562.562-.562 1.5 0 2.253.563.563 1.501.563 2.251 0 3.945-3.944 9.578-6.383 15.399-6.383z"/><path d="M20.463 31.886c3.754 0 7.32 1.503 9.946 4.132.563.563 1.506.563 2.257 0 .562-.565.562-1.502 0-2.253-3.194-3.191-7.512-4.883-12.017-4.883-4.506 0-8.824 1.878-12.016 4.883-.563.562-.563 1.5 0 2.253.562.563 1.501.563 2.251 0 2.255-2.629 5.821-4.132 9.579-4.132zM20.463 39.584c1.688 0 3.191.563 4.316 1.877.562.565 1.503.565 2.254 0 .75-.563.562-1.501 0-2.251-1.691-1.691-4.13-2.628-6.57-2.628-2.442 0-4.883.937-6.574 2.628-.562.563-.562 1.5 0 2.251.565.752 1.503.565 2.255 0 .939-1.126 2.627-1.877 4.319-1.877z"/><path d="M-2.819 90.465l1.5 1.503V7.292l-1.5 1.501h46.563l-1.693-1.501v84.676l1.505-1.503h-7.697c-.938 0-1.506.75-1.506 1.503 0 .938.755 1.501 1.506 1.501h7.696c.938 0 1.501-.751 1.501-1.501V7.292c0-.94-.75-1.503-1.501-1.503H-2.82c-.94 0-1.69.753-1.69 1.503v84.676c0 .938.75 1.501 1.502 1.501h42.056c.938 0 1.501-.751 1.501-1.501 0-.94-.751-1.503-1.501-1.503H-2.819z"/><path d="M-2.819 105.859c-3.379 0-6.196-2.815-6.196-6.195V-.408c0-3.379 2.816-6.195 6.196-6.195h46.563c3.38 0 6.194 2.815 6.194 6.195V99.664c0 3.38-2.814 6.195-6.194 6.195h-7.697c-.938 0-1.506.753-1.506 1.504 0 .75.755 1.5 1.506 1.5h7.697c5.069 0 9.385-4.13 9.385-9.199V-.408c0-5.069-4.128-9.199-9.385-9.199H-2.819c-5.258 0-9.387 4.13-9.387 9.199V99.664c0 5.069 4.129 9.199 9.387 9.199h42.056c.938 0 1.501-.75 1.501-1.5 0-.751-.751-1.504-1.501-1.504H-2.819z"/><path d="M28.159 1.096c.94 0 1.5-.753 1.5-1.503 0-.75-.56-1.501-1.5-1.501H12.576c-.938 0-1.503.751-1.503 1.501 0 .75.753 1.503 1.503 1.503h15.583z"/></g></svg>