<svg width="115" height="115" viewBox="0 0 115 115" xmlns="http://www.w3.org/2000/svg"><title>feat-05-alert</title><g fill="#2BB0AF" fill-rule="evenodd"><circle cx="57.5" cy="64.688" r="3.594"/><path d="M57.5 57.5a3.595 3.595 0 0 1-3.594-3.594V28.75a3.595 3.595 0 0 1 3.594-3.594 3.595 3.595 0 0 1 3.594 3.594v25.156A3.595 3.595 0 0 1 57.5 57.5z"/><path d="M23.809 115a3.587 3.587 0 0 1-3.554-4.104l3.744-26.213C8.92 75.911 0 61.881 0 46.72 0 20.959 25.796 0 57.5 0S115 20.959 115 46.719 89.204 93.437 57.5 93.437c-1.926 0-3.906-.097-6.149-.305L26.11 114.17c-.658.55-1.477.83-2.3.83zM57.5 7.187c-27.744 0-50.313 17.736-50.313 39.532 0 13.178 8.37 25.454 22.393 32.847a3.587 3.587 0 0 1 1.88 3.687l-2.771 19.406 19.223-16.017a3.545 3.545 0 0 1 2.688-.812c2.623.287 4.812.42 6.9.42 27.744 0 50.313-17.735 50.313-39.531S85.243 7.187 57.5 7.187z"/></g></svg>