<?xml version="1.0" encoding="utf-8"?>
<!-- Generator: Adobe Illustrator 16.0.0, SVG Export Plug-In . SVG Version: 6.00 Build 0)  -->
<!DOCTYPE svg PUBLIC "-//W3C//DTD SVG 1.1//EN" "http://www.w3.org/Graphics/SVG/1.1/DTD/svg11.dtd">
<svg version="1.1" id="Layer_1" xmlns="http://www.w3.org/2000/svg" xmlns:xlink="http://www.w3.org/1999/xlink" x="0px" y="0px"
	 width="21px" height="96px" viewBox="0 0 21 96" enable-background="new 0 0 21 96" xml:space="preserve">
<title>Shape</title>
<desc>Created with Sketch.</desc>
<g id="Page-1">
	<path id="Shape" fill="#333366" d="M10.5,0C7,0,4.375,2.818,4.375,6.165v70.987C1.75,79.09,0,82.084,0,85.432
		C0,91.244,4.725,96,10.5,96C16.275,96,21,91.244,21,85.432c0-3.523-1.75-6.342-4.375-8.279V6.165C16.625,2.818,14,0,10.5,0L10.5,0z
		 M10.5,3.523c1.575,0,2.625,0.786,2.625,1.965V55h-5.25V5.488C7.875,4.309,8.925,3.523,10.5,3.523L10.5,3.523z"/>
</g>
</svg>
