<?xml version="1.0" encoding="UTF-8" standalone="no"?>
<svg width="21px" height="96px" viewBox="0 0 21 96" version="1.1" xmlns="http://www.w3.org/2000/svg" xmlns:xlink="http://www.w3.org/1999/xlink">
    <!-- Generator: Sketch 40 (33762) - http://www.bohemiancoding.com/sketch -->
    <title>Shape</title>
    <desc>Created with Sketch.</desc>
    <defs></defs>
    <g id="Page-1" stroke="none" stroke-width="1" fill="none" fill-rule="evenodd">
        <path d="M10.5,0 C7,0 4.375,2.81834862 4.375,6.16513761 L4.375,77.1522936 C1.75,79.0899083 0,82.0844037 0,85.4311927 C0,91.2440367 4.725,96 10.5,96 C16.275,96 21,91.2440367 21,85.4311927 C21,81.9082569 19.25,79.0899083 16.625,77.1522936 L16.625,6.16513761 C16.625,2.81834862 14,0 10.5,0 L10.5,0 Z M10.5,3.52293578 C12.075,3.52293578 13.125,4.30884516 13.125,5.48770922 L13.125,55 L7.875,55 L7.875,5.48770922 C7.875,4.30884516 8.925,3.52293578 10.5,3.52293578 L10.5,3.52293578 Z" id="Shape" fill="#000000"></path>
    </g>
</svg>