<?xml version="1.0" encoding="utf-8"?>
<!-- Generator: Adobe Illustrator 20.1.0, SVG Export Plug-In . SVG Version: 6.00 Build 0)  -->
<svg version="1.1" id="Capa_1" xmlns="http://www.w3.org/2000/svg" xmlns:xlink="http://www.w3.org/1999/xlink" x="0px" y="0px"
	 viewBox="0 0 80 100" style="enable-background:new 0 0 80 100;" xml:space="preserve">
<g>
	<path d="M29.5,30.5c1.4,0,2.5,0.5,2.5,2.5h2c0-3-2-4.5-4.5-4.5S25,30,25,33h2C27,31,28.1,30.5,29.5,30.5z"/>
	<path d="M50.5,30.5c1.4,0,2.5,0.5,2.5,2.5h2c0-3-2-4.5-4.5-4.5S46,30,46,33h2C48,31,49.1,30.5,50.5,30.5z"/>
	<path d="M40,62c8.5,0,16-5.5,19.9-14.6l0.6-1.4h-41l0.6,1.4C24,56.5,31.5,62,40,62z M57.4,48C53.7,55.5,47.3,60,40,60
		s-13.7-4.5-17.4-12H57.4z"/>
</g>
</svg>
