<?xml version="1.0" encoding="utf-8"?>
<!-- Generator: Adobe Illustrator 20.1.0, SVG Export Plug-In . SVG Version: 6.00 Build 0)  -->
<svg version="1.1" id="Capa_1" xmlns="http://www.w3.org/2000/svg" xmlns:xlink="http://www.w3.org/1999/xlink" x="0px" y="0px"
	 viewBox="0 0 84 105" style="enable-background:new 0 0 84 105;" xml:space="preserve">
<title>Chart2</title>
<desc>Created with Sketch.</desc>
<g>
	<g>
		<path d="M34.3,51.8l7.3-8.5l9.7,4.8c1.4,0.7,3.2,0.2,4-1.2l10.4-18.2l1.2,4.1c0.3,1.1,1.4,1.7,2.5,1.4c1.1-0.3,1.7-1.4,1.4-2.5
			l-2.5-8.7c-0.3-1.1-1.4-1.7-2.5-1.4l-8.7,2.5c-1.1,0.3-1.7,1.4-1.4,2.5c0.3,1.1,1.4,1.7,2.5,1.4l4-1.1l-9.9,17.4l-9.4-4.7
			c-1.3-0.7-3-0.3-4,0.8l-7.7,9c-0.7-0.3-1.4-0.4-2.2-0.4c-3.3,0-6,2.7-6,6s2.7,6,6,6s6-2.7,6-6C35.1,53.7,34.9,52.6,34.3,51.8
			L34.3,51.8z M27.1,54.7c0-1.1,0.9-2,2-2c1.1,0,2,0.9,2,2s-0.9,2-2,2C28,56.7,27.1,55.9,27.1,54.7z"/>
	</g>
</g>
</svg>
