<?xml version="1.0" encoding="utf-8"?>
<!-- Generator: Adobe Illustrator 16.0.0, SVG Export Plug-In . SVG Version: 6.00 Build 0)  -->
<!DOCTYPE svg PUBLIC "-//W3C//DTD SVG 1.1//EN" "http://www.w3.org/Graphics/SVG/1.1/DTD/svg11.dtd">
<svg version="1.1" id="Layer_1" xmlns="http://www.w3.org/2000/svg" xmlns:xlink="http://www.w3.org/1999/xlink" x="0px" y="0px"
	 width="58px" height="94px" viewBox="0 0 58 94" enable-background="new 0 0 58 94" xml:space="preserve">
<title>ben-03-lock</title>
<desc>Created with Sketch.</desc>
<g id="Page-1">
	<g id="ben-03-lock" transform="translate(-1.000000, -1.000000)">
		<path id="Shape" fill="#333366" d="M29.847,7.331h0.521c9.197,0,16.659,6.109,16.659,13.614h5.899
			c0-10.822-10.064-19.549-22.558-19.549h-0.521c-12.494,0-22.559,8.727-22.559,19.549v20.771c-3.817,4.189-6.247,9.6-6.247,15.36
			v12.742c0,13.614,12.841,24.785,28.632,24.785h0.694C46.158,94.604,59,83.433,59,69.818V57.076
			c0-13.614-12.842-24.785-28.632-24.785h-0.694c-6.247,0-11.973,1.745-16.659,4.538V20.945C13.015,13.44,20.65,7.331,29.847,7.331
			L29.847,7.331z M29.673,38.226h0.694c12.494,0,22.732,8.378,22.732,18.851v12.742c0,10.298-10.238,18.851-22.732,18.851h-0.694
			c-12.494,0-22.732-8.378-22.732-18.851V57.076C6.941,46.778,17.179,38.226,29.673,38.226L29.673,38.226z"/>
		<polygon id="Shape_1_" fill="#333366" points="27.071,56.029 32.971,56.029 32.971,72.785 27.071,72.785 		"/>
	</g>
</g>
</svg>
