<?xml version="1.0" encoding="utf-8"?>
<!-- Generator: Adobe Illustrator 20.1.0, SVG Export Plug-In . SVG Version: 6.00 Build 0)  -->
<svg version="1.1" id="Capa_1" xmlns="http://www.w3.org/2000/svg" xmlns:xlink="http://www.w3.org/1999/xlink" x="0px" y="0px"
	 viewBox="0 0 64.5 65" style="enable-background:new 0 0 64.5 65;" xml:space="preserve">
<g>
	<path d="M29.9,26.1c-0.4,0.4-0.9,1-1.5,1.8c-0.6,0.8-1.3,1.6-2,2.5c-0.7,0.9-1.4,1.9-2.2,2.9c-0.7,1-1.4,2-1.9,2.9h7.8v2.1H19.2
		v-1.7c0.4-0.8,1-1.7,1.6-2.7c0.6-1,1.3-1.9,2-2.9c0.7-1,1.4-1.9,2.1-2.7s1.2-1.6,1.7-2.1h-7v-2.1h10.3V26.1z"/>
</g>
<g>
	<path d="M51.6,17.2c-0.2,0.2-0.4,0.4-0.6,0.7s-0.5,0.7-0.8,1.1c-0.3,0.4-0.6,0.8-0.9,1.2c-0.3,0.4-0.6,0.8-0.8,1.2h3.3v0.9h-4.5
		v-0.7c0.2-0.3,0.4-0.7,0.7-1.1s0.5-0.8,0.8-1.2c0.3-0.4,0.6-0.8,0.9-1.1s0.5-0.7,0.7-0.9h-2.9v-0.9h4.3V17.2z"/>
</g>
<g>
	<path d="M42.3,21.5c-0.3,0.3-0.6,0.7-1,1.2c-0.4,0.5-0.9,1.1-1.4,1.8s-1,1.3-1.5,2c-0.5,0.7-0.9,1.4-1.3,2h5.4V30h-7.5v-1.2
		c0.3-0.6,0.7-1.2,1.1-1.8c0.4-0.7,0.9-1.3,1.4-2c0.5-0.7,1-1.3,1.4-1.9c0.5-0.6,0.9-1.1,1.2-1.5h-4.8v-1.5h7.1V21.5z"/>
</g>
</svg>
