<?xml version="1.0" encoding="UTF-8" standalone="no"?>
<svg width="93px" height="103px" viewBox="0 0 93 103" version="1.1" xmlns="http://www.w3.org/2000/svg" xmlns:xlink="http://www.w3.org/1999/xlink">
    <!-- Generator: Sketch 40 (33762) - http://www.bohemiancoding.com/sketch -->
    <title>ben-05-time</title>
    <desc>Created with Sketch.</desc>
    <defs></defs>
    <g id="Page-1" stroke="none" stroke-width="1" fill="none" fill-rule="evenodd">
        <g id="ben-05-time" fill="#000000">
            <path d="M46.2414545,10.1675 C58.9745455,10.1675 70.5992727,15.37375 78.8814545,23.804375 C87.2945455,32.235 92.4829091,43.763125 92.4829091,56.529375 C92.4829091,69.295625 87.2945455,80.950625 78.8814545,89.254375 C70.4770909,97.685 58.9745455,102.89125 46.2414545,102.89125 C33.5083636,102.89125 21.8836364,97.685 13.6014545,89.254375 C5.19272727,80.828125 0,69.295625 0,56.529375 C0,43.763125 5.19272727,32.108125 13.6014545,23.804375 C22.0058182,15.37375 33.5083636,10.1675 46.2414545,10.1675 L46.2414545,10.1675 Z M75.0501818,27.645625 C67.632,20.208125 57.4952727,15.61875 46.2414545,15.61875 C34.9876364,15.61875 24.8509091,20.208125 17.4327273,27.645625 C10.0145455,35.083125 5.43709091,45.24625 5.43709091,56.529375 C5.43166792,67.3763315 9.75053734,77.7755418 17.4327273,85.413125 C24.8509091,92.855 34.9876364,97.44 46.2414545,97.44 C57.4952727,97.44 67.632,92.855 75.0501818,85.413125 C82.7319609,77.7752647 87.0507556,67.3762343 87.0458182,56.529375 C87.0497849,45.68271 82.7311395,35.2840391 75.0501818,27.645625 L75.0501818,27.645625 Z" id="Shape"></path>
            <path d="M45.7483636,28.0175 C45.7625627,26.5156989 46.9733724,25.301736 48.4712727,25.2875 C49.9674687,25.3041015 51.1756594,26.517383 51.1898182,28.0175 L51.1898182,58.51125 C51.1898182,59.99875 49.9549091,61.236875 48.4712727,61.236875 L27.3250909,61.236875 C25.8414545,61.236875 24.6065455,59.99875 24.6065455,58.51125 C24.6065455,57.02375 25.8414545,55.785625 27.3250909,55.785625 L45.7483636,55.785625 L45.7483636,28.0175 L45.7483636,28.0175 Z M39.1941818,7.94818756e-19 L53.4152727,7.94818756e-19 C54.9114687,0.0166015479 56.1196594,1.229883 56.1338182,2.73 L56.1338182,9.30125 C54.4058182,8.929375 52.5469091,8.68 50.6923636,8.430625 L50.6923636,5.455625 L41.9127273,5.455625 L41.9127273,8.430625 C40.0581818,8.553125 38.2036364,8.8025 36.4712727,9.174375 L36.4712727,2.73 C36.4854718,1.22819892 37.6962815,0.0142360377 39.1941818,-3.05210402e-16 L39.1941818,7.94818756e-19 Z M13.4749091,11.7775 L25.0996364,5.08375 C26.4610909,4.34 28.0669091,4.711875 28.8087273,6.076875 L31.4050909,10.661875 C29.6727273,11.283125 27.9403636,11.9 26.2123636,12.64375 L25.3483636,11.15625 L18.4232727,15.124375 L19.1650909,16.489375 C17.6238197,17.5257999 16.1381213,18.6429755 14.7141818,19.83625 L12.24,15.49625 C11.4981818,14.13125 11.8690909,12.52125 13.2305455,11.7775 L13.4749091,11.7775 L13.4749091,11.7775 Z M74.064,15.124375 L67.1389091,11.15625 L66.2749091,12.64375 C64.6043626,11.8339467 62.8669516,11.1708402 61.0821818,10.661875 L63.6829091,6.076875 C64.0365482,5.44470002 64.6299846,4.98263419 65.3284398,4.79561984 C66.0268949,4.60860549 66.7710875,4.71251539 67.392,5.08375 L79.0167273,11.7775 C80.3738182,12.52125 80.7447273,14.258125 80.0072727,15.49625 L77.4065455,19.95875 C76.0489641,18.7382391 74.6036032,17.6195907 73.0821818,16.611875 L73.9461818,15.124375 L74.064,15.124375 L74.064,15.124375 Z" id="Shape"></path>
        </g>
    </g>
</svg>