<?xml version="1.0" encoding="UTF-8" standalone="no"?>
<svg width="42px" height="34px" viewBox="0 0 42 34" version="1.1" xmlns="http://www.w3.org/2000/svg" xmlns:xlink="http://www.w3.org/1999/xlink">
    <!-- Generator: Sketch 40 (33762) - http://www.bohemiancoding.com/sketch -->
    <title>Shape</title>
    <desc>Created with Sketch.</desc>
    <defs></defs>
    <g id="Page-1" stroke="none" stroke-width="1" fill="none" fill-rule="evenodd">
        <path d="M10.5,2.5 C11.9,2.5 13,3 13,5 L15,5 C15,2 13,0.5 10.5,0.5 C8,0.5 6,2 6,5 L8,5 C8,3 9.1,2.5 10.5,2.5 L10.5,2.5 Z M31.5,2.5 C32.9,2.5 34,3 34,5 L36,5 C36,2 34,0.5 31.5,0.5 C29,0.5 27,2 27,5 L29,5 C29,3 30.1,2.5 31.5,2.5 L31.5,2.5 Z M21,34 C29.5,34 37,28.5 40.9,19.4 L41.5,18 L0.5,18 L1.1,19.4 C5,28.5 12.5,34 21,34 L21,34 Z M38.4,20 C34.7,27.5 28.3,32 21,32 C13.7,32 7.3,27.5 3.6,20 L38.4,20 L38.4,20 Z" id="Shape" fill="#000000"></path>
    </g>
</svg>