<svg xmlns="http://www.w3.org/2000/svg" width="26" height="23" viewBox="0 0 26 23">
  <defs>
    <style>
      .cls-1 {
        fill: #1c3244;
        fill-rule: evenodd;
      }
    </style>
  </defs>
  <path id="Forma_4" data-name="Forma 4" class="cls-1" d="M1004.07,1128.37a0.649,0.649,0,0,0,.65.65h0.65a0.655,0.655,0,0,0,0-1.31h-0.65a0.651,0.651,0,0,0-.65.66m2.93-8.22h0.65a0.655,0.655,0,0,0,0-1.31H1007a0.655,0.655,0,0,0,0,1.31m-3.58,0h0.65a0.655,0.655,0,0,0,0-1.31h-0.65a0.655,0.655,0,0,0,0,1.31m4.23,8.22a0.649,0.649,0,0,0,.65.65h0.65a0.655,0.655,0,0,0,0-1.31h-0.65a0.651,0.651,0,0,0-.65.66m3.57,0a0.649,0.649,0,0,0,.65.65h0.65a0.655,0.655,0,0,0,0-1.31h-0.65a0.651,0.651,0,0,0-.65.66m-10.73,0a0.649,0.649,0,0,0,.65.65h0.65a0.655,0.655,0,0,0,0-1.31h-0.65a0.651,0.651,0,0,0-.65.66m-5.759-2.83a0.657,0.657,0,0,0-.342.86,4.291,4.291,0,0,0,.355.68,0.658,0.658,0,0,0,.9.2,0.665,0.665,0,0,0,.195-0.91,3.559,3.559,0,0,1-.254-0.48,0.649,0.649,0,0,0-.6-0.4,0.577,0.577,0,0,0-.256.05m2.216,2.56a0.644,0.644,0,0,0,.469.79,3.807,3.807,0,0,0,.747.13,0.657,0.657,0,0,0,.108-1.31,2.426,2.426,0,0,1-.533-0.09,0.9,0.9,0,0,0-.161-0.02,0.653,0.653,0,0,0-.63.5m0.064-7.39a2.918,2.918,0,0,1,.48-0.25,0.662,0.662,0,0,0-.25-1.27,0.721,0.721,0,0,0-.248.05,4.362,4.362,0,0,0-.674.36,0.654,0.654,0,0,0,.692,1.11m2.832-.56h0.647a0.655,0.655,0,0,0,0-1.31h-0.647a0.655,0.655,0,0,0,0,1.31m-5.053,3.61a0.648,0.648,0,0,0,.709-0.59,3.514,3.514,0,0,1,.1-0.54,0.651,0.651,0,0,0-.46-0.8,0.487,0.487,0,0,0-.168-0.02,0.649,0.649,0,0,0-.628.48,4.722,4.722,0,0,0-.134.76,0.647,0.647,0,0,0,.586.71m20.01-12.48h0.65a0.655,0.655,0,0,0,0-1.31h-0.65a0.655,0.655,0,0,0,0,1.31m3.5,8.07a3.924,3.924,0,0,0,.56-0.52,0.66,0.66,0,0,0-.49-1.1,0.672,0.672,0,0,0-.48.22,3.412,3.412,0,0,1-.39.37,0.675,0.675,0,0,0-.11.93,0.64,0.64,0,0,0,.91.1m0.4-4.45v0.65a0.65,0.65,0,1,0,1.3,0v-0.65a0.65,0.65,0,1,0-1.3,0m-4.23,5.25h0.65a0.655,0.655,0,0,0,0-1.31h-0.65a0.655,0.655,0,0,0,0,1.31m3.4-7.47a0.64,0.64,0,0,0,.91.1,0.664,0.664,0,0,0,.1-0.93,5.38,5.38,0,0,0-.52-0.55,0.67,0.67,0,0,0-.43-0.17,0.651,0.651,0,0,0-.49.23,0.659,0.659,0,0,0,.05.92,2.863,2.863,0,0,1,.38.4m-17.38-1.4h0.65a0.655,0.655,0,0,0,0-1.31h-0.65a0.655,0.655,0,0,0,0,1.31m7.16,0h0.65a0.655,0.655,0,0,0,0-1.31h-0.65a0.655,0.655,0,0,0,0,1.31m3.57,0h0.65a0.655,0.655,0,0,0,0-1.31h-0.65a0.655,0.655,0,0,0,0,1.31m-7.15,0h0.65a0.655,0.655,0,0,0,0-1.31h-0.65a0.655,0.655,0,0,0,0,1.31m6.83,8.87h0.65a0.655,0.655,0,0,0,0-1.31h-0.65a0.655,0.655,0,0,0,0,1.31m6.5,9.53a1.315,1.315,0,1,0-1.3-1.31,1.306,1.306,0,0,0,1.3,1.31m0-3.94a2.63,2.63,0,1,1-2.6,2.63,2.621,2.621,0,0,1,2.6-2.63m-20.808-13.8a1.315,1.315,0,1,0-1.3-1.32,1.31,1.31,0,0,0,1.3,1.32m0-3.94a2.625,2.625,0,1,1-2.6,2.62,2.61,2.61,0,0,1,2.6-2.62" transform="translate(-994 -1108)"/>
</svg>
