<?xml version="1.0" encoding="UTF-8" standalone="no"?>
<svg width="96px" height="79px" viewBox="0 0 96 79" version="1.1" xmlns="http://www.w3.org/2000/svg" xmlns:xlink="http://www.w3.org/1999/xlink">
    <!-- Generator: Sketch 40 (33762) - http://www.bohemiancoding.com/sketch -->
    <title>ben-07-up</title>
    <desc>Created with Sketch.</desc>
    <defs></defs>
    <g id="Page-1" stroke="none" stroke-width="1" fill="none" fill-rule="evenodd">
        <g id="ben-07-up" transform="translate(0.000000, -1.000000)" fill="#000000">
            <path d="M22.6,61.6 L37.2,44.6 L56.6,54.2 C59.4,55.6 63,54.6 64.6,51.8 L85.4,15.4 L87.8,23.6 C88.4,25.8 90.6,27 92.8,26.4 C95,25.8 96.2,23.6 95.6,21.4 L90.6,4 C90,1.8 87.8,0.6 85.6,1.2 L68.2,6.2 C66,6.8 64.8,9 65.4,11.2 C66,13.4 68.2,14.6 70.4,14 L78.4,11.8 L58.6,46.6 L39.8,37.2 C37.2,35.8 33.8,36.6 31.8,38.8 L16.4,56.8 C15,56.2 13.6,56 12,56 C5.4,56 0,61.4 0,68 C0,74.6 5.4,80 12,80 C18.6,80 24,74.6 24,68 C24.2,65.4 23.8,63.2 22.6,61.6 L22.6,61.6 Z M8.2,67.4 C8.2,65.2 10,63.4 12.2,63.4 C14.4,63.4 16.2,65.2 16.2,67.4 C16.2,69.6 14.4,71.4 12.2,71.4 C10,71.4 8.2,69.8 8.2,67.4 L8.2,67.4 Z" id="Shape"></path>
        </g>
    </g>
</svg>