<?xml version="1.0" encoding="utf-8"?>
<!-- Generator: Adobe Illustrator 16.0.0, SVG Export Plug-In . SVG Version: 6.00 Build 0)  -->
<!DOCTYPE svg PUBLIC "-//W3C//DTD SVG 1.1//EN" "http://www.w3.org/Graphics/SVG/1.1/DTD/svg11.dtd">
<svg version="1.1" id="Layer_1" xmlns="http://www.w3.org/2000/svg" xmlns:xlink="http://www.w3.org/1999/xlink" x="0px" y="0px"
	 width="96px" height="85px" viewBox="0 0 96 85" enable-background="new 0 0 96 85" xml:space="preserve">
<title>Forma_4</title>
<desc>Created with Sketch.</desc>
<g id="Page-1">
	<path id="Forma_4" fill="#333366" d="M37.103,75.281c-0.001,0.637,0.251,1.248,0.7,1.699c0.449,0.451,1.059,0.703,1.694,0.703
		h2.394c1.333,0,2.413-1.084,2.413-2.422c0-1.336-1.08-2.42-2.413-2.42h-2.394c-0.641,0.001-1.255,0.26-1.705,0.718
		S37.094,74.638,37.103,75.281 M47.893,44.902h2.394c1.332,0,2.412-1.084,2.412-2.42c0-1.337-1.08-2.42-2.412-2.421h-2.394
		c-1.332,0-2.412,1.084-2.412,2.421C45.481,43.818,46.561,44.902,47.893,44.902 M34.709,44.902h2.394
		c1.332,0,2.412-1.084,2.412-2.42c0-1.337-1.08-2.42-2.412-2.421h-2.394c-1.332,0-2.412,1.084-2.412,2.421
		C32.297,43.818,33.377,44.902,34.709,44.902 M50.287,75.281c-0.002,0.637,0.25,1.248,0.699,1.699s1.059,0.703,1.694,0.703h2.394
		c1.332,0,2.412-1.084,2.412-2.422c0-1.336-1.08-2.42-2.412-2.42h-2.394c-0.642,0.001-1.255,0.26-1.704,0.718
		C50.526,74.018,50.277,74.638,50.287,75.281 M63.434,75.281c0,0.637,0.252,1.248,0.7,1.699c0.449,0.451,1.059,0.703,1.694,0.703
		h2.393c1.333,0,2.413-1.084,2.413-2.422c0-1.336-1.08-2.42-2.413-2.42h-2.393c-0.642,0.001-1.256,0.26-1.705,0.718
		S63.426,74.638,63.434,75.281 M23.919,75.281c-0.001,0.637,0.251,1.248,0.7,1.699s1.059,0.703,1.693,0.703h2.394
		c1.332,0,2.412-1.084,2.412-2.422c0-1.336-1.08-2.42-2.412-2.42h-2.394c-0.641,0.001-1.255,0.26-1.705,0.718
		S23.91,74.638,23.919,75.281 M2.71,64.822C1.492,65.354,0.93,66.773,1.451,68c0.36,0.875,0.797,1.717,1.307,2.514
		c0.719,1.111,2.194,1.44,3.314,0.738c1.111-0.738,1.431-2.232,0.718-3.362c-0.356-0.567-0.669-1.159-0.936-1.774
		c-0.371-0.896-1.243-1.479-2.209-1.479c-0.324-0.011-0.647,0.053-0.943,0.186 M10.864,74.283c-0.163,0.617-0.071,1.273,0.254,1.822
		c0.325,0.55,0.855,0.945,1.474,1.098c0.898,0.251,1.82,0.412,2.75,0.48c1.333,0.109,2.501-0.885,2.611-2.222
		s-0.881-2.511-2.213-2.62c-0.665-0.037-1.323-0.148-1.963-0.333c-0.195-0.042-0.394-0.067-0.593-0.073
		C12.08,72.443,11.123,73.205,10.864,74.283 M11.1,46.973c0.56-0.363,1.151-0.672,1.768-0.924c1.055-0.456,1.65-1.59,1.429-2.721
		c-0.222-1.131-1.201-1.953-2.349-1.974c-0.313,0.007-0.622,0.07-0.914,0.185c-0.864,0.37-1.695,0.815-2.482,1.331
		c-1.129,0.706-1.474,2.196-0.77,3.329C8.485,47.332,9.971,47.678,11.1,46.973 M21.529,44.902h2.383c1.332,0,2.412-1.084,2.412-2.42
		c0-1.337-1.08-2.421-2.412-2.421h-2.383c-1.332,0-2.412,1.084-2.412,2.421C19.117,43.818,20.197,44.902,21.529,44.902 M2.92,58.244
		c0.635,0.062,1.269-0.133,1.76-0.543s0.797-1,0.851-1.638c0.071-0.674,0.194-1.341,0.369-1.995
		c0.167-0.618,0.083-1.277-0.235-1.832s-0.843-0.96-1.459-1.125c-0.2-0.061-0.41-0.086-0.619-0.074
		c-1.082-0.002-2.031,0.726-2.312,1.773c-0.241,0.922-0.406,1.861-0.494,2.81c-0.064,0.636,0.127,1.271,0.533,1.765
		c0.406,0.492,0.991,0.803,1.625,0.859 M76.629,12.122h2.394c1.333,0,2.412-1.083,2.412-2.42s-1.079-2.421-2.412-2.421h-2.394
		c-1.332,0-2.412,1.084-2.412,2.421S75.297,12.122,76.629,12.122 M89.518,41.946c0.748-0.572,1.439-1.216,2.062-1.922
		c0.639-0.716,0.799-1.741,0.409-2.619s-1.256-1.444-2.214-1.447c-0.674,0.018-1.312,0.312-1.768,0.813
		c-0.441,0.493-0.922,0.95-1.436,1.368c-1.034,0.85-1.213,2.368-0.405,3.437c0.392,0.501,0.968,0.823,1.599,0.893
		C88.396,42.539,89.027,42.35,89.518,41.946 M90.991,25.5v2.402c0,0.858,0.456,1.651,1.196,2.081c0.741,0.429,1.654,0.429,2.395,0
		s1.197-1.222,1.197-2.081V25.5c0-0.858-0.457-1.651-1.197-2.081c-0.74-0.429-1.653-0.429-2.395,0
		C91.447,23.849,90.991,24.642,90.991,25.5 M75.414,44.902h2.394c1.332,0,2.412-1.084,2.412-2.42c0-1.337-1.08-2.42-2.412-2.421
		h-2.394c-1.332,0-2.412,1.084-2.412,2.421C73.002,43.818,74.082,44.902,75.414,44.902 M87.935,17.296
		c0.392,0.501,0.968,0.823,1.599,0.893c0.631,0.069,1.262-0.119,1.753-0.523c1.042-0.85,1.206-2.384,0.368-3.437
		c-0.59-0.722-1.23-1.401-1.915-2.032c-0.437-0.392-0.998-0.614-1.583-0.628c-0.696,0.007-1.355,0.317-1.805,0.85
		c-0.87,0.995-0.788,2.505,0.184,3.4C87.048,16.264,87.517,16.759,87.935,17.296 M23.93,12.122h2.394
		c1.332,0,2.412-1.083,2.412-2.42s-1.08-2.421-2.412-2.421H23.93c-1.333,0-2.412,1.084-2.412,2.421S22.598,12.122,23.93,12.122
		 M50.298,12.122h2.394c1.332,0,2.412-1.083,2.412-2.42s-1.08-2.421-2.412-2.421h-2.394c-1.332,0-2.412,1.084-2.412,2.421
		S48.966,12.122,50.298,12.122 M63.445,12.122h2.394c1.332,0,2.412-1.083,2.412-2.42s-1.08-2.421-2.412-2.421h-2.394
		c-1.332,0-2.412,1.084-2.412,2.421S62.113,12.122,63.445,12.122 M37.114,12.122h2.394c1.332,0,2.412-1.083,2.412-2.42
		s-1.08-2.421-2.412-2.421h-2.394c-1.332,0-2.412,1.084-2.412,2.421S35.782,12.122,37.114,12.122 M62.267,44.902h2.394
		c1.332,0,2.412-1.084,2.412-2.42c0-1.337-1.08-2.42-2.412-2.421h-2.394c-1.332,0-2.412,1.084-2.412,2.421
		C59.854,43.818,60.935,44.902,62.267,44.902 M86.203,80.122c1.966,0.022,3.75-1.149,4.516-2.966s0.362-3.917-1.022-5.316
		c-1.384-1.4-3.475-1.822-5.29-1.067c-1.816,0.755-2.997,2.536-2.99,4.509C81.408,77.943,83.551,80.109,86.203,80.122
		 M86.203,65.561c3.928-0.045,7.493,2.295,9.027,5.924c1.533,3.627,0.732,7.826-2.028,10.629s-6.936,3.654-10.568,2.157
		s-6.005-5.048-6.005-8.989C76.61,69.948,80.891,65.604,86.203,65.561 M9.575,14.562c1.962,0.022,3.743-1.146,4.511-2.958
		c0.768-1.812,0.371-3.909-1.006-5.312C11.704,4.889,9.62,4.458,7.803,5.201C5.986,5.944,4.795,7.714,4.788,9.683
		c-0.01,1.284,0.489,2.519,1.387,3.434S8.295,14.552,9.575,14.562 M9.575,0c3.919-0.038,7.474,2.304,8.998,5.928
		c1.524,3.625,0.717,7.813-2.044,10.606c-2.761,2.792-6.929,3.634-10.552,2.133C2.354,17.166-0.007,13.617,0,9.683
		c-0.01-2.558,0.994-5.016,2.789-6.832C4.585,1.036,7.026,0.01,9.575,0"/>
</g>
</svg>
