<?xml version="1.0" encoding="utf-8"?>
<!-- Generator: Adobe Illustrator 20.1.0, SVG Export Plug-In . SVG Version: 6.00 Build 0)  -->
<svg version="1.1" id="Capa_1" xmlns="http://www.w3.org/2000/svg" xmlns:xlink="http://www.w3.org/1999/xlink" x="0px" y="0px"
	 viewBox="0 0 100 125" style="enable-background:new 0 0 100 125;" xml:space="preserve">
<title>Artboard 32</title>
<path d="M76.5,68.6c0-3.4-2.2-6.4-5.4-7.4c-0.8-0.3-1.2-1.1-0.9-1.9c0.3-0.7,1.1-1.1,1.8-0.9c5.7,1.9,8.8,8,6.9,13.7
	c-1.9,5.7-8,8.8-13.7,6.9c-3.3-1.1-5.9-3.7-7-7c-0.3-0.8,0.1-1.7,0.9-1.9c0.8-0.3,1.7,0.1,1.9,0.9c1.3,4.1,5.7,6.4,9.8,5.1
	C74.3,75.1,76.5,72,76.5,68.6L76.5,68.6z M93.6,74.9c2.2-0.4,3.8-2.3,3.8-4.6v-3.5c0-2.3-1.6-4.2-3.8-4.6l-3.2-0.6
	c-0.4-1.3-0.9-2.5-1.5-3.7l1.8-2.6c1.3-1.9,1.1-4.4-0.5-6L87.8,47c-1.6-1.6-4.1-1.8-6-0.5l-2.6,1.8c-1.1-0.5-2.1-1-3.3-1.3
	c-0.8-0.3-1.6,0.1-1.9,0.9c-0.3,0.8,0.1,1.6,0.9,1.9c1.3,0.4,2.5,0.9,3.6,1.6c0.5,0.3,1.1,0.3,1.6-0.1l3.4-2.4
	c0.7-0.5,1.5-0.4,2.1,0.2l2.4,2.5c0.6,0.6,0.6,1.5,0.2,2.1l-2.4,3.4c-0.3,0.5-0.4,1.1-0.1,1.6c0.9,1.5,1.5,3.1,2,4.7
	c0.2,0.6,0.6,1,1.2,1.1l4.1,0.7c0.8,0.1,1.4,0.8,1.4,1.6v3.5c0,0.8-0.6,1.5-1.4,1.6L89,72.7c-0.6,0.1-1,0.5-1.2,1.1
	c-0.5,1.7-1.1,3.3-2,4.7c-0.3,0.5-0.3,1.1,0.1,1.6l2.4,3.4c0.5,0.7,0.4,1.5-0.2,2.1l-2.4,2.5c-0.6,0.6-1.5,0.6-2.1,0.2l-3.4-2.4
	c-0.5-0.3-1.1-0.4-1.6-0.1c-1.5,0.9-3.1,1.5-4.7,2c-0.6,0.1-1,0.6-1.1,1.2L72,93.1c-0.1,0.8-0.8,1.4-1.6,1.4h-3.5
	c-0.8,0-1.5-0.6-1.6-1.4L64.6,89c-0.1-0.6-0.5-1-1.1-1.2c-1.7-0.5-3.2-1.1-4.7-2c-0.5-0.3-1.1-0.3-1.6,0.1l-3.4,2.4
	c-0.7,0.5-1.5,0.4-2.1-0.2l-2.5-2.4c-0.6-0.6-0.6-1.5-0.2-2.1l2.4-3.4c0.3-0.5,0.4-1.1,0.1-1.6c-0.6-1.1-1.2-2.4-1.6-3.6
	c-0.3-0.8-1.1-1.2-1.9-0.9c-0.8,0.3-1.2,1.1-0.9,1.9c0.4,1.1,0.8,2.2,1.4,3.3l-1.8,2.6c-1.3,1.9-1.1,4.4,0.5,6l2.5,2.4
	c1.6,1.6,4.1,1.8,6,0.5l2.6-1.8c1.2,0.6,2.4,1.1,3.7,1.5l0.6,3.2c0.4,2.2,2.3,3.8,4.6,3.8h3.5c2.3,0,4.2-1.6,4.6-3.8l0.6-3.2
	c1.3-0.4,2.5-0.9,3.7-1.5l2.6,1.8c1.9,1.3,4.4,1.1,6-0.5l2.4-2.4c1.6-1.6,1.8-4.1,0.5-6L89,79.2c0.6-1.2,1.1-2.4,1.5-3.7L93.6,74.9z
	 M11,55.7l2.5-3.5c-0.9-1.6-1.6-3.3-2.1-5.1l-4.3-0.8c-2.6-0.5-4.5-2.7-4.5-5.4v-4.4c0-2.7,1.9-4.9,4.5-5.4l4.3-0.8
	c0.5-1.8,1.2-3.4,2.1-5.1L11,21.8c-1.5-2.2-1.3-5.1,0.6-7l3.1-3.1c1.9-1.9,4.8-2.1,7-0.6l3.5,2.5c1.6-0.9,3.3-1.6,5.1-2.1l0.8-4.3
	c0.5-2.6,2.7-4.5,5.4-4.5h4.4c2.7,0,4.9,1.9,5.4,4.5l0.8,4.3c1.8,0.5,3.4,1.2,5.1,2.1l3.6-2.5c2.2-1.5,5.1-1.3,7,0.6l3.1,3.1
	c1.9,1.9,2.1,4.8,0.6,7L64,25.3c0.9,1.6,1.6,3.3,2.1,5.1l4.3,0.8c2.6,0.5,4.5,2.7,4.5,5.4v4.4c0,2.7-1.9,5-4.5,5.4l-4.3,0.8
	c-0.5,1.7-1.2,3.4-2.1,5l2.5,3.5c1.5,2.2,1.3,5.1-0.6,7l-3.1,3.1c-1.9,1.9-4.8,2.1-7,0.6L52.1,64c-1.6,0.9-3.3,1.6-5.1,2.1l-0.8,4.3
	c-0.5,2.6-2.7,4.5-5.4,4.5h-4.4c-2.7,0-4.9-1.9-5.4-4.5l-0.8-4.3c-1.7-0.5-3.4-1.2-5-2.1l-3.5,2.5c-2.2,1.5-5.1,1.3-7-0.6l-3.2-3.1
	C9.7,60.8,9.5,57.9,11,55.7z M13.7,60.6l3.1,3.1c0.8,0.8,2.2,1,3.2,0.3l4.3-3c0.5-0.4,1.2-0.4,1.7-0.1c1.9,1.1,4,2,6.1,2.5
	c0.6,0.2,1,0.6,1.1,1.2l0.9,5.2c0.2,1.2,1.2,2.1,2.5,2.1H41c1.2,0,2.3-0.9,2.5-2.1l0.9-5.2c0.1-0.6,0.5-1,1.1-1.2
	c2.1-0.6,4.2-1.4,6.1-2.5c0.5-0.3,1.1-0.2,1.6,0.1l4.3,3c1,0.7,2.3,0.6,3.2-0.3l3.1-3.1c0.9-0.9,1-2.2,0.3-3.2l-3-4.3
	c-0.3-0.5-0.4-1.1-0.1-1.6c1.1-1.9,2-4,2.5-6.1c0.2-0.6,0.6-1,1.2-1.1l5.2-0.9c1.2-0.2,2.1-1.2,2.1-2.5v-4.4c0-1.2-0.9-2.3-2.1-2.5
	l-5.2-0.9c-0.6-0.1-1-0.5-1.2-1.1c-0.6-2.1-1.4-4.2-2.6-6.1c-0.3-0.5-0.3-1.2,0.1-1.6l3-4.4c0.7-1,0.6-2.3-0.3-3.2l-3.1-3.1
	c-0.9-0.9-2.2-1-3.2-0.3l-4.3,3c-0.5,0.3-1.1,0.4-1.6,0.1c-1.9-1.1-4-1.9-6.1-2.5c-0.6-0.2-1-0.6-1.1-1.2l-0.9-5.2
	c-0.2-1.2-1.2-2.1-2.5-2.1h-4.4c-1.2,0-2.3,0.9-2.5,2.1l-0.9,5.2c-0.1,0.6-0.5,1-1.1,1.2c-2.1,0.6-4.2,1.4-6.1,2.5
	c-0.5,0.3-1.1,0.3-1.6-0.1l-4.3-3c-1-0.7-2.3-0.6-3.2,0.3l-3.1,3.1c-0.8,0.8-1,2.1-0.3,3.1l3,4.3c0.4,0.5,0.4,1.2,0.1,1.7
	c-1.1,1.9-2,3.9-2.5,6.1c-0.2,0.6-0.6,1-1.2,1.1l-5.2,0.9c-1.2,0.2-2.1,1.2-2.1,2.5v4.4c0,1.2,0.9,2.3,2.1,2.5l5.2,0.9
	c0.6,0.1,1,0.5,1.2,1.1c0.6,2.1,1.4,4.2,2.5,6.1c0.3,0.5,0.3,1.1-0.1,1.6l-3,4.3C12.8,58.4,12.9,59.8,13.7,60.6L13.7,60.6z
	 M25.3,38.7c0-7.4,6-13.4,13.4-13.4s13.4,6,13.4,13.4c0,7.4-6,13.4-13.4,13.4c0,0,0,0,0,0C31.3,52.1,25.3,46.1,25.3,38.7z
	 M28.3,38.7c0,5.7,4.6,10.4,10.4,10.4s10.4-4.6,10.4-10.4s-4.6-10.4-10.4-10.4c0,0,0,0,0,0C33,28.4,28.4,33,28.3,38.7z"/>
</svg>
