<?xml version="1.0" encoding="utf-8"?>
<!-- Generator: Adobe Illustrator 20.1.0, SVG Export Plug-In . SVG Version: 6.00 Build 0)  -->
<svg version="1.1" id="Capa_1" xmlns="http://www.w3.org/2000/svg" xmlns:xlink="http://www.w3.org/1999/xlink" x="0px" y="0px"
	 viewBox="0 0 91 113.8" style="enable-background:new 0 0 91 113.8;" xml:space="preserve">
<g>
	<path d="M46.2,23.2h0.3c5.3,0,9.6,3.5,9.6,7.8h3.4c0-6.2-5.8-11.2-13-11.2h-0.3c-7.2,0-13,5-13,11.2v11.9c-2.2,2.4-3.6,5.5-3.6,8.8
		V59c0,7.8,7.4,14.2,16.5,14.2h0.4c9.1,0,16.5-6.4,16.5-14.2v-7.3c0-7.8-7.4-14.2-16.5-14.2h-0.4c-3.6,0-6.9,1-9.6,2.6V31
		C36.5,26.7,40.9,23.2,46.2,23.2z M46.1,40.9h0.4c7.2,0,13.1,4.8,13.1,10.8V59c0,5.9-5.9,10.8-13.1,10.8h-0.4C38.9,69.8,33,65,33,59
		v-7.3C33,45.8,38.9,40.9,46.1,40.9z"/>
	<rect x="44.6" y="51.1" width="3.4" height="9.6"/>
</g>
</svg>
