<?xml version="1.0" encoding="utf-8"?>
<!-- Generator: Adobe Illustrator 16.0.0, SVG Export Plug-In . SVG Version: 6.00 Build 0)  -->
<!DOCTYPE svg PUBLIC "-//W3C//DTD SVG 1.1//EN" "http://www.w3.org/Graphics/SVG/1.1/DTD/svg11.dtd">
<svg version="1.1" id="Layer_1" xmlns="http://www.w3.org/2000/svg" xmlns:xlink="http://www.w3.org/1999/xlink" x="0px" y="0px"
	 width="42px" height="34px" viewBox="0 0 42 34" enable-background="new 0 0 42 34" xml:space="preserve">
<title>Shape</title>
<desc>Created with Sketch.</desc>
<g id="Page-1">
	<path id="Shape" fill="#333366" d="M10.5,2.5C11.9,2.5,13,3,13,5h2c0-3-2-4.5-4.5-4.5S6,2,6,5h2C8,3,9.1,2.5,10.5,2.5L10.5,2.5z
		 M31.5,2.5C32.9,2.5,34,3,34,5h2c0-3-2-4.5-4.5-4.5S27,2,27,5h2C29,3,30.1,2.5,31.5,2.5L31.5,2.5z M21,34c8.5,0,16-5.5,19.9-14.6
		l0.6-1.4h-41l0.6,1.4C5,28.5,12.5,34,21,34L21,34z M38.4,20C34.7,27.5,28.3,32,21,32S7.3,27.5,3.6,20H38.4L38.4,20z"/>
</g>
</svg>
