<?xml version="1.0" encoding="utf-8"?>
<!-- Generator: Adobe Illustrator 16.0.0, SVG Export Plug-In . SVG Version: 6.00 Build 0)  -->
<!DOCTYPE svg PUBLIC "-//W3C//DTD SVG 1.1//EN" "http://www.w3.org/Graphics/SVG/1.1/DTD/svg11.dtd">
<svg version="1.1" id="Layer_1" xmlns="http://www.w3.org/2000/svg" xmlns:xlink="http://www.w3.org/1999/xlink" x="0px" y="0px"
	 width="96px" height="64px" viewBox="0 0 96 64" enable-background="new 0 0 96 64" xml:space="preserve">
<title>Shape</title>
<desc>Created with Sketch.</desc>
<g id="Page-1">
	<path id="Shape" fill="#333366" d="M31.509,28.347c-1.178,1.169-2.65,2.922-4.417,5.26c-1.767,2.338-3.828,4.676-5.889,7.306
		c-2.062,2.63-4.123,5.553-6.479,8.476c-2.062,2.922-4.123,5.844-5.595,8.475h22.969V64H0v-4.969
		c1.178-2.338,2.945-4.967,4.712-7.89c1.767-2.923,3.828-5.553,5.889-8.476c2.062-2.922,4.123-5.552,6.184-7.89
		c2.062-2.338,3.534-4.676,5.006-6.137H1.178v-6.137h30.332V28.347L31.509,28.347z M95.411,2.338
		c-0.589,0.584-1.179,1.169-1.767,2.046c-0.59,0.876-1.473,2.045-2.355,3.214l-2.65,3.507c-0.885,1.169-1.768,2.338-2.356,3.507H96
		v2.63H82.748v-2.046c0.59-0.876,1.178-2.045,2.062-3.214s1.473-2.338,2.356-3.507c0.883-1.169,1.767-2.338,2.65-3.215
		c0.883-0.876,1.473-2.045,2.061-2.63h-8.539V0H96v2.338H95.411z M68.024,14.904c-0.884,0.876-1.767,2.045-2.944,3.507
		c-1.178,1.461-2.65,3.214-4.123,5.26c-1.473,2.045-2.945,3.799-4.417,5.845c-1.473,2.045-2.65,4.091-3.829,5.845h15.902v4.383
		H46.528v-3.507c0.883-1.753,2.061-3.507,3.24-5.26c1.178-2.045,2.649-3.799,4.122-5.845c1.472-2.045,2.944-3.799,4.122-5.552
		c1.473-1.753,2.65-3.215,3.534-4.384H47.411v-4.383h20.907v4.091H68.024z"/>
</g>
</svg>
