<svg xmlns="http://www.w3.org/2000/svg" xmlns:xlink="http://www.w3.org/1999/xlink" xmlns:a="http://ns.adobe.com/AdobeSVGViewerExtensions/3.0/" version="1.1" x="0px" y="0px" viewBox="-1.53 -0.255 24 30" enable-background="new -1.53 -0.255 24 24" xml:space="preserve"><path fill="#000000" d="M10.597,2.324c2.918,0,5.582,1.19,7.48,3.117c1.928,1.927,3.117,4.562,3.117,7.48  c0,2.918-1.189,5.582-3.117,7.48c-1.926,1.927-4.562,3.117-7.48,3.117s-5.582-1.19-7.48-3.117C1.19,18.475,0,15.839,0,12.921  c0-2.918,1.19-5.582,3.117-7.48C5.043,3.514,7.679,2.324,10.597,2.324z M17.199,6.319c-1.7-1.7-4.023-2.749-6.602-2.749  S5.695,4.619,3.995,6.319s-2.749,4.023-2.749,6.602c0,2.578,1.048,4.902,2.749,6.602c1.7,1.701,4.023,2.749,6.602,2.749  s4.902-1.048,6.602-2.749c1.7-1.699,2.749-4.023,2.749-6.602C19.948,10.342,18.899,8.019,17.199,6.319z"/><path fill="#000000" d="M10.484,6.404c0-0.34,0.283-0.624,0.624-0.624c0.34,0,0.623,0.284,0.623,0.624v6.97  c0,0.34-0.283,0.623-0.623,0.623H6.262c-0.34,0-0.623-0.283-0.623-0.623s0.283-0.623,0.623-0.623h4.222V6.432V6.404z"/><path fill="#000000" d="M8.982,0h3.259c0.34,0,0.623,0.284,0.623,0.624v1.502c-0.396-0.085-0.822-0.142-1.247-0.199v-0.68H9.605  v0.68c-0.425,0.028-0.85,0.085-1.247,0.17V0.624C8.359,0.284,8.642,0,8.982,0z"/><path fill="#000000" d="M3.088,2.692l2.664-1.53c0.312-0.17,0.68-0.085,0.85,0.227l0.595,1.048C6.8,2.579,6.403,2.72,6.007,2.89  L5.809,2.55L4.222,3.457l0.17,0.312c-0.34,0.227-0.68,0.482-1.02,0.765L2.805,3.542c-0.17-0.312-0.085-0.68,0.227-0.85H3.088z"/><path fill="#000000" d="M16.973,3.457L15.386,2.55l-0.198,0.34c-0.368-0.17-0.765-0.34-1.19-0.453l0.596-1.048  c0.17-0.312,0.566-0.397,0.85-0.227l2.664,1.53c0.311,0.17,0.396,0.567,0.227,0.85l-0.596,1.02  c-0.312-0.283-0.651-0.538-0.991-0.765l0.198-0.34H16.973z"/><text x="-1.53" y="38.745000000000005" fill="#000000" font-size="5px" font-weight="bold" font-family="'Helvetica Neue', Helvetica, Arial-Unicode, Arial, Sans-serif">Created by Mariia Nisiforova</text><text x="-1.53" y="43.745000000000005" fill="#000000" font-size="5px" font-weight="bold" font-family="'Helvetica Neue', Helvetica, Arial-Unicode, Arial, Sans-serif">from the Noun Project</text></svg>