<?xml version="1.0" encoding="utf-8"?>
<!-- Generator: Adobe Illustrator 16.0.0, SVG Export Plug-In . SVG Version: 6.00 Build 0)  -->
<!DOCTYPE svg PUBLIC "-//W3C//DTD SVG 1.1//EN" "http://www.w3.org/Graphics/SVG/1.1/DTD/svg11.dtd">
<svg version="1.1" id="Layer_1" xmlns="http://www.w3.org/2000/svg" xmlns:xlink="http://www.w3.org/1999/xlink" x="0px" y="0px"
	 width="93px" height="103px" viewBox="0 0 93 103" enable-background="new 0 0 93 103" xml:space="preserve">
<title>ben-05-time</title>
<desc>Created with Sketch.</desc>
<g id="Page-1">
	<g id="ben-05-time">
		<path id="Shape" fill="#333366" d="M46.241,10.167c12.733,0,24.358,5.206,32.64,13.637c8.414,8.431,13.602,19.959,13.602,32.725
			c0,12.766-5.188,24.422-13.602,32.725c-8.404,8.432-19.906,13.637-32.64,13.637c-12.733,0-24.357-5.205-32.64-13.637
			C5.193,80.828,0,69.295,0,56.529c0-12.766,5.193-24.421,13.602-32.725C22.006,15.374,33.508,10.167,46.241,10.167L46.241,10.167z
			 M75.051,27.646c-7.419-7.438-17.556-12.027-28.81-12.027c-11.253,0-21.39,4.589-28.809,12.027
			C10.015,35.083,5.437,45.246,5.437,56.529C5.432,67.377,9.75,77.775,17.433,85.413c7.418,7.442,17.555,12.026,28.809,12.026
			c11.254,0,21.391-4.584,28.81-12.026c7.682-7.638,12-18.037,11.995-28.884C87.05,45.683,82.73,35.284,75.051,27.646L75.051,27.646
			z"/>
		<path id="Shape_1_" fill="#333366" d="M45.749,28.018c0.014-1.502,1.225-2.716,2.722-2.73c1.496,0.017,2.705,1.23,2.719,2.73
			v30.494c0,1.486-1.234,2.725-2.719,2.725H27.325c-1.484,0-2.719-1.238-2.719-2.725c0-1.488,1.235-2.727,2.719-2.727h18.423V28.018
			L45.749,28.018z M39.194,0h14.221c1.497,0.017,2.704,1.23,2.719,2.73v6.571c-1.728-0.372-3.587-0.621-5.441-0.871V5.456h-8.78
			v2.975c-1.854,0.123-3.709,0.372-5.441,0.744V2.73C36.485,1.228,37.696,0.014,39.194,0L39.194,0z M13.475,11.777L25.1,5.084
			c1.361-0.744,2.967-0.372,3.709,0.993l2.597,4.585c-1.732,0.621-3.465,1.238-5.193,1.981l-0.864-1.487l-6.925,3.968l0.742,1.365
			c-1.541,1.037-3.027,2.154-4.451,3.347l-2.474-4.34c-0.742-1.365-0.371-2.975,0.99-3.719H13.475L13.475,11.777z M74.064,15.125
			l-6.926-3.968l-0.863,1.487c-1.671-0.81-3.408-1.473-5.193-1.981l2.602-4.585c0.354-0.632,0.946-1.094,1.645-1.281
			c0.699-0.187,1.443-0.083,2.064,0.289l11.624,6.693c1.357,0.744,1.728,2.481,0.991,3.719l-2.602,4.463
			c-1.357-1.221-2.803-2.339-4.324-3.347l0.864-1.487H74.064L74.064,15.125z"/>
	</g>
</g>
</svg>
