<?xml version="1.0" encoding="utf-8"?>
<!-- Generator: Adobe Illustrator 20.1.0, SVG Export Plug-In . SVG Version: 6.00 Build 0)  -->
<svg version="1.1"
	 id="Capa_1" xmlns:cc="http://creativecommons.org/ns#" xmlns:dc="http://purl.org/dc/elements/1.1/" xmlns:inkscape="http://www.inkscape.org/namespaces/inkscape" xmlns:rdf="http://www.w3.org/1999/02/22-rdf-syntax-ns#" xmlns:sodipodi="http://sodipodi.sourceforge.net/DTD/sodipodi-0.dtd" xmlns:svg="http://www.w3.org/2000/svg"
	 xmlns="http://www.w3.org/2000/svg" xmlns:xlink="http://www.w3.org/1999/xlink" x="0px" y="0px" viewBox="0 0 100 125"
	 style="enable-background:new 0 0 100 125;" xml:space="preserve">
<g transform="translate(0,-952.36218)">
	<path d="M50,975.1c-2,0-3.5,1.6-3.5,3.5v40.3c-1.5,1.1-2.5,2.8-2.5,4.7c0,3.3,2.7,6,6,6c3.3,0,6-2.7,6-6c0-2-1-3.6-2.5-4.7v-40.3
		C53.5,976.7,52,975.1,50,975.1z M50,977.1c0.9,0,1.5,0.6,1.5,1.5v37.8h-3v-37.8C48.5,977.7,49.1,977.1,50,977.1z"/>
</g>
</svg>
