<?xml version="1.0" encoding="utf-8"?>
<!-- Generator: Adobe Illustrator 16.0.0, SVG Export Plug-In . SVG Version: 6.00 Build 0)  -->
<!DOCTYPE svg PUBLIC "-//W3C//DTD SVG 1.1//EN" "http://www.w3.org/Graphics/SVG/1.1/DTD/svg11.dtd">
<svg version="1.1" id="Layer_1" xmlns="http://www.w3.org/2000/svg" xmlns:xlink="http://www.w3.org/1999/xlink" x="0px" y="0px"
	 width="96px" height="96px" viewBox="0 0 96 96" enable-background="new 0 0 96 96" xml:space="preserve">
<title>ben-01-optimization</title>
<desc>Created with Sketch.</desc>
<g id="Page-1">
	<g id="ben-01-optimization">
		<path id="Shape" fill="#333366" d="M74.5,66.6c0-3.399-2.2-6.399-5.4-7.399C68.3,58.9,67.9,58.1,68.2,57.3
			c0.3-0.7,1.1-1.1,1.8-0.899c5.7,1.899,8.8,8,6.9,13.699c-1.9,5.7-8,8.801-13.7,6.9c-3.3-1.1-5.9-3.7-7-7
			c-0.3-0.8,0.1-1.7,0.899-1.9C57.9,67.8,58.8,68.2,59,69c1.3,4.1,5.7,6.4,9.8,5.1C72.3,73.1,74.5,70,74.5,66.6L74.5,66.6z
			 M91.6,72.9C93.8,72.5,95.4,70.6,95.4,68.3v-3.5c0-2.3-1.601-4.2-3.801-4.6L88.4,59.6c-0.4-1.3-0.9-2.5-1.5-3.699l1.8-2.601
			c1.3-1.899,1.1-4.399-0.5-6L85.8,45c-1.6-1.6-4.1-1.8-6-0.5l-2.6,1.8c-1.101-0.5-2.101-1-3.3-1.3C73.1,44.7,72.3,45.1,72,45.9
			c-0.3,0.8,0.1,1.6,0.9,1.9c1.3,0.4,2.5,0.9,3.6,1.601c0.5,0.3,1.1,0.3,1.6-0.101l3.4-2.4c0.7-0.5,1.5-0.4,2.1,0.2l2.4,2.5
			c0.6,0.601,0.6,1.5,0.2,2.101L83.8,55.1C83.5,55.6,83.4,56.2,83.7,56.7c0.899,1.5,1.5,3.1,2,4.7c0.2,0.6,0.6,1,1.2,1.1l4.1,0.7
			c0.8,0.1,1.4,0.8,1.4,1.6v3.5c0,0.8-0.601,1.5-1.4,1.601l-4,0.8c-0.6,0.1-1,0.5-1.2,1.1c-0.5,1.7-1.1,3.3-2,4.7
			c-0.3,0.5-0.3,1.1,0.101,1.6l2.399,3.4c0.5,0.7,0.4,1.5-0.2,2.1L83.7,86.1C83.1,86.7,82.2,86.7,81.6,86.3L78.2,83.9
			C77.7,83.6,77.1,83.5,76.6,83.8c-1.5,0.9-3.1,1.5-4.699,2C71.3,85.9,70.9,86.4,70.8,87L70,91.1c-0.1,0.801-0.8,1.4-1.6,1.4h-3.5
			c-0.801,0-1.5-0.6-1.601-1.4L62.6,87c-0.1-0.6-0.5-1-1.1-1.2c-1.7-0.5-3.2-1.1-4.7-2c-0.5-0.3-1.1-0.3-1.6,0.101L51.8,86.3
			c-0.7,0.5-1.5,0.4-2.1-0.2L47.2,83.7C46.6,83.1,46.6,82.2,47,81.6l2.4-3.399c0.3-0.5,0.399-1.101,0.1-1.601
			c-0.6-1.1-1.2-2.399-1.6-3.6c-0.3-0.8-1.1-1.2-1.9-0.9C45.2,72.4,44.8,73.2,45.1,74c0.4,1.1,0.8,2.2,1.4,3.3L44.7,79.9
			c-1.3,1.899-1.1,4.399,0.5,6l2.5,2.399c1.6,1.601,4.1,1.8,6,0.5l2.6-1.8c1.2,0.6,2.4,1.1,3.7,1.5l0.6,3.2
			c0.4,2.2,2.301,3.8,4.601,3.8h3.5c2.3,0,4.2-1.6,4.6-3.8l0.601-3.2c1.3-0.4,2.5-0.9,3.699-1.5l2.601,1.8
			c1.899,1.3,4.399,1.101,6-0.5L88.6,85.9c1.601-1.601,1.801-4.101,0.5-6L87,77.2c0.6-1.2,1.1-2.4,1.5-3.7L91.6,72.9L91.6,72.9z
			 M9,53.7l2.5-3.5c-0.9-1.601-1.6-3.3-2.1-5.1l-4.3-0.8c-2.6-0.5-4.5-2.7-4.5-5.4v-4.4c0-2.7,1.9-4.9,4.5-5.4l4.3-0.8
			c0.5-1.8,1.2-3.4,2.1-5.1L9,19.8c-1.5-2.2-1.3-5.1,0.6-7l3.1-3.1c1.9-1.9,4.8-2.1,7-0.6l3.5,2.5c1.6-0.9,3.3-1.6,5.1-2.1l0.8-4.3
			c0.5-2.6,2.7-4.5,5.4-4.5h4.4c2.7,0,4.9,1.9,5.4,4.5l0.8,4.3c1.8,0.5,3.4,1.2,5.1,2.1l3.6-2.5c2.2-1.5,5.101-1.3,7,0.6l3.101,3.1
			c1.899,1.9,2.1,4.8,0.6,7L62,23.3c0.9,1.6,1.6,3.3,2.1,5.1l4.301,0.8c2.6,0.5,4.5,2.7,4.5,5.4V39c0,2.7-1.9,5-4.5,5.4L64.1,45.2
			c-0.5,1.7-1.199,3.399-2.1,5l2.5,3.5c1.5,2.2,1.3,5.1-0.6,7L60.8,63.8C58.9,65.7,56,65.9,53.8,64.4L50.1,62
			c-1.6,0.9-3.3,1.6-5.1,2.1L44.2,68.4c-0.5,2.6-2.7,4.5-5.4,4.5h-4.4c-2.7,0-4.9-1.9-5.4-4.5L28.2,64.1c-1.7-0.5-3.4-1.199-5-2.1
			l-3.5,2.5c-2.2,1.5-5.1,1.3-7-0.6L9.5,60.8C7.7,58.8,7.5,55.9,9,53.7L9,53.7z M11.7,58.6l3.1,3.101c0.8,0.8,2.2,1,3.2,0.3l4.3-3
			c0.5-0.4,1.2-0.4,1.7-0.1c1.9,1.1,4,2,6.1,2.5c0.6,0.199,1,0.6,1.1,1.199l0.9,5.2c0.2,1.2,1.2,2.101,2.5,2.101H39
			c1.2,0,2.3-0.9,2.5-2.101l0.9-5.2c0.1-0.6,0.5-1,1.1-1.199c2.1-0.601,4.2-1.4,6.1-2.5C50.1,58.6,50.7,58.7,51.2,59l4.3,3
			c1,0.7,2.3,0.6,3.2-0.3l3.1-3.101c0.9-0.899,1-2.199,0.3-3.199l-3-4.301C58.8,50.6,58.7,50,59,49.5c1.1-1.9,2-4,2.5-6.1
			c0.2-0.6,0.6-1,1.2-1.1l5.2-0.9c1.199-0.2,2.1-1.2,2.1-2.5v-4.4c0-1.2-0.9-2.3-2.1-2.5l-5.2-0.9c-0.601-0.1-1-0.5-1.2-1.1
			c-0.6-2.1-1.4-4.2-2.6-6.1C58.6,23.4,58.6,22.7,59,22.3l3-4.4c0.7-1,0.6-2.3-0.3-3.2L58.6,11.6c-0.899-0.9-2.199-1-3.199-0.3
			l-4.301,3c-0.5,0.3-1.1,0.4-1.6,0.1c-1.9-1.1-4-1.9-6.1-2.5c-0.6-0.2-1-0.6-1.1-1.2l-0.9-5.2c-0.2-1.2-1.2-2.1-2.5-2.1h-4.4
			c-1.2,0-2.3,0.9-2.5,2.1l-0.9,5.2c-0.1,0.6-0.5,1-1.1,1.2c-2.1,0.6-4.2,1.4-6.1,2.5c-0.5,0.3-1.1,0.3-1.6-0.1l-4.3-3
			c-1-0.7-2.3-0.6-3.2,0.3l-3.1,3.1c-0.8,0.8-1,2.1-0.3,3.1l3,4.3c0.4,0.5,0.4,1.2,0.1,1.7c-1.1,1.9-2,3.9-2.5,6.1
			c-0.2,0.6-0.6,1-1.2,1.1l-5.2,0.9c-1.2,0.2-2.1,1.2-2.1,2.5v4.4c0,1.2,0.9,2.3,2.1,2.5l5.2,0.9c0.6,0.1,1,0.5,1.2,1.1
			c0.6,2.1,1.4,4.2,2.5,6.101c0.3,0.5,0.3,1.1-0.1,1.6l-3,4.3C10.8,56.4,10.9,57.8,11.7,58.6L11.7,58.6z M23.3,36.7
			c0-7.4,6-13.4,13.4-13.4c7.4,0,13.399,6,13.399,13.4c0,7.4-6,13.399-13.399,13.399C29.3,50.1,23.3,44.1,23.3,36.7L23.3,36.7z
			 M26.3,36.7c0,5.7,4.6,10.4,10.4,10.4c5.8,0,10.4-4.6,10.4-10.4c0-5.8-4.6-10.4-10.4-10.4C31,26.4,26.4,31,26.3,36.7L26.3,36.7z"
			/>
	</g>
</g>
</svg>
