<?xml version="1.0" encoding="UTF-8" standalone="no"?>
<svg width="115px" height="115px" viewBox="0 0 115 115" version="1.1" xmlns="http://www.w3.org/2000/svg" xmlns:xlink="http://www.w3.org/1999/xlink">
    <!-- Generator: Sketch 40 (33762) - http://www.bohemiancoding.com/sketch -->
    <title>feat-04-radar</title>
    <desc>Created with Sketch.</desc>
    <defs></defs>
    <g id="Page-1" stroke="none" stroke-width="1" fill="none" fill-rule="evenodd">
        <g id="feat-04-radar" fill="#2BB0AF">
            <g id="Group">
                <g id="Shape">
                    <path d="M57.5,3.83333333 C27.9833333,3.83333333 3.83333333,27.9833333 3.83333333,57.5 C3.83333333,87.0166667 27.9833333,111.166667 57.5,111.166667 C87.0166667,111.166667 111.166667,87.0166667 111.166667,57.5 C111.166667,27.9833333 87.0166667,3.83333333 57.5,3.83333333 M57.5,115 C25.875,115 0,89.3166667 0,57.5 C0,25.6833333 25.875,0 57.5,0 C89.125,0 115,25.875 115,57.5 C115,89.125 89.125,115 57.5,115"></path>
                    <path d="M57.5,95.8333333 C47.3416667,95.8333333 37.5666667,91.8083333 30.475,84.525 C29.7083333,83.7583333 29.7083333,82.6083333 30.475,81.8416667 C31.2416667,81.075 32.3916667,81.075 33.1583333,81.8416667 C39.675,88.55 48.3,92 57.5,92 C76.475,92 92,76.475 92,57.5 C92,38.525 76.475,23 57.5,23 C38.525,23 23,38.525 23,57.5 C23,59.4166667 23.1916667,61.3333333 23.3833333,63.0583333 C23.575,64.0166667 22.8083333,65.1666667 21.85,65.1666667 C20.7,65.3583333 19.7416667,64.5916667 19.7416667,63.6333333 C19.3583333,61.7166667 19.1666667,59.6083333 19.1666667,57.5 C19.1666667,36.4166667 36.4166667,19.1666667 57.5,19.1666667 C78.5833333,19.1666667 95.8333333,36.4166667 95.8333333,57.5 C95.8333333,78.5833333 78.5833333,95.8333333 57.5,95.8333333"></path>
                    <path d="M57.5,76.6666667 C52.325,76.6666667 47.5333333,74.75 43.8916667,71.1083333 C43.125,70.3416667 43.125,69.1916667 43.8916667,68.425 C44.6583333,67.6583333 45.8083333,67.6583333 46.575,68.425 C49.45,71.3 53.2833333,72.8333333 57.5,72.8333333 C65.9333333,72.8333333 72.8333333,65.9333333 72.8333333,57.5 C72.8333333,49.0666667 65.9333333,42.1666667 57.5,42.1666667 C49.0666667,42.1666667 42.1666667,49.0666667 42.1666667,57.5 C42.1666667,58.2666667 42.1666667,59.225 42.3583333,59.9916667 C42.55,60.95 41.7833333,62.1 40.825,62.1 C39.8666667,62.2916667 38.7166667,61.525 38.7166667,60.5666667 C38.3333333,59.6083333 38.3333333,58.65 38.3333333,57.5 C38.3333333,46.9583333 46.9583333,38.3333333 57.5,38.3333333 C68.0416667,38.3333333 76.6666667,46.9583333 76.6666667,57.5 C76.6666667,68.0416667 68.0416667,76.6666667 57.5,76.6666667"></path>
                    <path d="M24.9166667,92 C24.3416667,92 23.9583333,91.8083333 23.575,91.425 C22.8083333,90.6583333 22.8083333,89.5083333 23.575,88.7416667 L52.1333333,60.1833333 C52.9,59.4166667 54.05,59.4166667 54.8166667,60.1833333 C55.5833333,60.95 55.5833333,62.1 54.8166667,62.8666667 L26.2583333,91.425 C25.875,91.8083333 25.4916667,92 24.9166667,92"></path>
                    <path d="M21.0833333,36.4166667 C21.0833333,34.3083333 19.3583333,32.5833333 17.25,32.5833333 C15.1416667,32.5833333 13.4166667,34.3083333 13.4166667,36.4166667 C13.4166667,38.525 15.1416667,40.25 17.25,40.25 C19.3583333,40.25 21.0833333,38.525 21.0833333,36.4166667"></path>
                    <path d="M80.5,74.75 C80.5,72.6416667 78.775,70.9166667 76.6666667,70.9166667 C74.5583333,70.9166667 72.8333333,72.6416667 72.8333333,74.75 C72.8333333,76.8583333 74.5583333,78.5833333 76.6666667,78.5833333 C78.775,78.5833333 80.5,76.8583333 80.5,74.75"></path>
                    <path d="M86.25,21.0833333 C86.25,18.975 84.525,17.25 82.4166667,17.25 C80.3083333,17.25 78.5833333,18.975 78.5833333,21.0833333 C78.5833333,23.1916667 80.3083333,24.9166667 82.4166667,24.9166667 C84.525,24.9166667 86.25,23.1916667 86.25,21.0833333"></path>
                    <path d="M57.5,53.6666667 C55.3916667,53.6666667 53.6666667,55.3916667 53.6666667,57.5 C53.6666667,59.6083333 55.3916667,61.3333333 57.5,61.3333333 C59.6083333,61.3333333 61.3333333,59.6083333 61.3333333,57.5 C61.3333333,55.3916667 59.6083333,53.6666667 57.5,53.6666667 M57.5,65.1666667 C53.2833333,65.1666667 49.8333333,61.7166667 49.8333333,57.5 C49.8333333,53.2833333 53.2833333,49.8333333 57.5,49.8333333 C61.7166667,49.8333333 65.1666667,53.2833333 65.1666667,57.5 C65.1666667,61.7166667 61.7166667,65.1666667 57.5,65.1666667"></path>
                </g>
            </g>
        </g>
    </g>
</svg>