<?xml version="1.0" encoding="UTF-8" standalone="no"?>
<svg width="138px" height="114px" viewBox="0 0 138 114" version="1.1" xmlns="http://www.w3.org/2000/svg" xmlns:xlink="http://www.w3.org/1999/xlink">
    <!-- Generator: Sketch 40 (33762) - http://www.bohemiancoding.com/sketch -->
    <title>feat-06-up</title>
    <desc>Created with Sketch.</desc>
    <defs></defs>
    <g id="Page-1" stroke="none" stroke-width="1" fill="none" fill-rule="evenodd">
        <g id="feat-06-up" fill="#2BB0AF">
            <path d="M32.4875,87.55 L53.475,63.1125 L81.3625,76.9125 C85.3875,78.925 90.5625,77.4875 92.8625,73.4625 L122.7625,21.1375 L126.2125,32.925 C127.075,36.0875 130.2375,37.8125 133.4,36.95 C136.5625,36.0875 138.2875,32.925 137.425,29.7625 L130.2375,4.75 C129.375,1.5875 126.2125,-0.1375 123.05,0.725 L98.0375,7.9125 C94.875,8.775 93.15,11.9375 94.0125,15.1 C94.875,18.2625 98.0375,19.9875 101.2,19.125 L112.7,15.9625 L84.2375,65.9875 L57.2125,52.475 C53.475,50.4625 48.5875,51.6125 45.7125,54.775 L23.575,80.65 C21.5625,79.7875 19.55,79.5 17.25,79.5 C7.7625,79.5 4.26325641e-14,87.2625 4.26325641e-14,96.75 C4.26325641e-14,106.2375 7.7625,114 17.25,114 C26.7375,114 34.5,106.2375 34.5,96.75 C34.7875,93.0125 34.2125,89.85 32.4875,87.55 L32.4875,87.55 L32.4875,87.55 Z M11.7875,95.8875 C11.7875,92.725 14.375,90.1375 17.5375,90.1375 C20.7,90.1375 23.2875,92.725 23.2875,95.8875 C23.2875,99.05 20.7,101.6375 17.5375,101.6375 C14.375,101.6375 11.7875,99.3375 11.7875,95.8875 L11.7875,95.8875 Z" id="Shape"></path>
        </g>
    </g>
</svg>