<?xml version="1.0" encoding="UTF-8" standalone="no"?>
<svg width="115px" height="115px" viewBox="0 0 115 115" version="1.1" xmlns="http://www.w3.org/2000/svg" xmlns:xlink="http://www.w3.org/1999/xlink">
    <!-- Generator: Sketch 40 (33762) - http://www.bohemiancoding.com/sketch -->
    <title>feat-05-alert</title>
    <desc>Created with Sketch.</desc>
    <defs></defs>
    <g id="Page-1" stroke="none" stroke-width="1" fill="none" fill-rule="evenodd">
        <g id="feat-05-alert" fill="#2BB0AF">
            <g id="Group">
                <circle id="Oval" cx="57.5" cy="64.6875" r="3.59375"></circle>
                <path d="M57.5,57.5 C55.51625,57.5 53.90625,55.89 53.90625,53.90625 L53.90625,28.75 C53.90625,26.76625 55.51625,25.15625 57.5,25.15625 C59.48375,25.15625 61.09375,26.76625 61.09375,28.75 L61.09375,53.90625 C61.09375,55.89 59.48375,57.5 57.5,57.5 L57.5,57.5 Z" id="Shape"></path>
                <path d="M23.8085938,115 C23.2084375,115 22.6046875,114.849062 22.0584375,114.543594 C20.7610938,113.82125 20.0423438,112.372969 20.254375,110.895938 L23.9990625,84.683125 C8.9196875,75.9107812 0,61.8807813 0,46.71875 C0,20.95875 25.7959375,0 57.5,0 C89.2040625,0 115,20.95875 115,46.71875 C115,72.47875 89.2040625,93.4375 57.5,93.4375 C55.57375,93.4375 53.5935938,93.3404687 51.3510937,93.1320312 L26.1085937,114.169844 C25.4509375,114.719688 24.6315625,115 23.8085938,115 L23.8085938,115 Z M57.5,7.1875 C29.75625,7.1875 7.1875,24.9226562 7.1875,46.71875 C7.1875,59.8970313 15.5573438,72.1732812 29.5801562,79.565625 C30.9242188,80.2735938 31.6753125,81.7470312 31.4596875,83.2528125 L28.6889062,102.659063 L47.911875,86.6417187 C48.659375,86.0164063 49.6296875,85.7145313 50.6,85.8295313 C53.2234375,86.1170312 55.4120312,86.25 57.5,86.25 C85.24375,86.25 107.8125,68.5148438 107.8125,46.71875 C107.8125,24.9226562 85.24375,7.1875 57.5,7.1875 L57.5,7.1875 Z" id="Shape"></path>
            </g>
        </g>
    </g>
</svg>