<?xml version="1.0" encoding="utf-8"?>
<!-- Generator: Adobe Illustrator 16.0.0, SVG Export Plug-In . SVG Version: 6.00 Build 0)  -->
<!DOCTYPE svg PUBLIC "-//W3C//DTD SVG 1.1//EN" "http://www.w3.org/Graphics/SVG/1.1/DTD/svg11.dtd">
<svg version="1.1" id="Capa_1" xmlns:sketch="http://www.bohemiancoding.com/sketch/ns"
	 xmlns="http://www.w3.org/2000/svg" xmlns:xlink="http://www.w3.org/1999/xlink" x="0px" y="0px" width="65.335px"
	 height="118.47px" viewBox="-12.206 -9.607 65.335 118.47" enable-background="new -12.206 -9.607 65.335 118.47"
	 xml:space="preserve">
<title>Noun Project</title>
<desc>Created with Sketch.</desc>
<g sketch:type="MSPage">
	<g sketch:type="MSArtboardGroup">
		<g transform="translate(29.000000, 0.000000)" sketch:type="MSLayerGroup">
			<path sketch:type="MSShapeGroup" fill="#339999" d="M-8.537,24.189c5.819,0,11.265,2.251,15.396,6.383
				c0.562,0.563,1.501,0.563,2.251,0c0.562-0.562,0.562-1.503,0-2.253c-4.694-4.507-10.89-7.136-17.647-7.136
				c-6.762,0-12.957,2.629-17.65,7.136c-0.562,0.562-0.562,1.5,0,2.253c0.563,0.563,1.501,0.563,2.251,0
				C-19.991,26.628-14.358,24.189-8.537,24.189z"/>
			<path sketch:type="MSShapeGroup" fill="#339999" d="M-8.537,31.886c3.754,0,7.32,1.503,9.946,4.132
				c0.563,0.563,1.506,0.563,2.257,0c0.562-0.565,0.562-1.502,0-2.253c-3.194-3.191-7.512-4.883-12.017-4.883
				c-4.506,0-8.824,1.878-12.016,4.883c-0.563,0.562-0.563,1.5,0,2.253c0.562,0.563,1.501,0.563,2.251,0
				C-15.861,33.389-12.295,31.886-8.537,31.886z"/>
			<path sketch:type="MSShapeGroup" fill="#339999" d="M-8.537,39.584c1.688,0,3.191,0.563,4.316,1.877
				c0.562,0.565,1.503,0.565,2.254,0c0.75-0.563,0.562-1.501,0-2.251c-1.691-1.691-4.13-2.628-6.57-2.628
				c-2.442,0-4.883,0.937-6.574,2.628c-0.562,0.563-0.562,1.5,0,2.251c0.565,0.752,1.503,0.565,2.255,0
				C-11.917,40.335-10.229,39.584-8.537,39.584z"/>
			<path sketch:type="MSShapeGroup" fill="#339999" d="M-31.819,90.465l1.5,1.503V7.292l-1.5,1.501h46.563l-1.693-1.501v84.676
				l1.505-1.503H6.859c-0.938,0-1.506,0.75-1.506,1.503c0,0.938,0.755,1.501,1.506,1.501h7.696c0.938,0,1.501-0.751,1.501-1.501
				V7.292c0-0.94-0.75-1.503-1.501-1.503h-46.375c-0.94,0-1.69,0.753-1.69,1.503v84.676c0,0.938,0.75,1.501,1.502,1.501h42.056
				c0.938,0,1.501-0.751,1.501-1.501c0-0.94-0.751-1.503-1.501-1.503H-31.819z"/>
			<path sketch:type="MSShapeGroup" fill="#339999" d="M-31.819,105.859c-3.379,0-6.196-2.815-6.196-6.195V-0.408
				c0-3.379,2.816-6.195,6.196-6.195h46.563c3.38,0,6.194,2.815,6.194,6.195V99.664c0,3.38-2.814,6.195-6.194,6.195H7.047
				c-0.938,0-1.506,0.753-1.506,1.504c0,0.75,0.755,1.5,1.506,1.5h7.697c5.069,0,9.385-4.13,9.385-9.199V-0.408
				c0-5.069-4.128-9.199-9.385-9.199h-46.563c-5.258,0-9.387,4.13-9.387,9.199V99.664c0,5.069,4.129,9.199,9.387,9.199h42.056
				c0.938,0,1.501-0.75,1.501-1.5c0-0.751-0.751-1.504-1.501-1.504H-31.819z"/>
			<path sketch:type="MSShapeGroup" fill="#339999" d="M-0.841,1.096c0.94,0,1.5-0.753,1.5-1.503c0-0.75-0.56-1.501-1.5-1.501
				h-15.583c-0.938,0-1.503,0.751-1.503,1.501c0,0.75,0.753,1.503,1.503,1.503H-0.841z"/>
		</g>
	</g>
</g>
</svg>
