<?xml version="1.0" encoding="UTF-8" standalone="no"?>
<svg width="49px" height="115px" viewBox="0 0 49 115" version="1.1" xmlns="http://www.w3.org/2000/svg" xmlns:xlink="http://www.w3.org/1999/xlink">
    <!-- Generator: Sketch 40 (33762) - http://www.bohemiancoding.com/sketch -->
    <title>feat-01-hand</title>
    <desc>Created with Sketch.</desc>
    <defs></defs>
    <g id="Page-1" stroke="none" stroke-width="1" fill="none" fill-rule="evenodd">
        <g id="feat-01-hand" fill="#2BB0AF">
            <g id="Group">
                <path d="M16.0674419,76.36 C16.0674419,75.785 15.6116279,75.44 15.155814,75.44 C14.5860465,75.44 14.244186,75.9 14.244186,76.36 C14.244186,79.465 16.7511628,81.995 19.9418605,81.995 C20.5116279,81.995 20.8534884,81.535 20.8534884,81.075 C20.8534884,80.5 20.3976744,80.155 19.9418605,80.155 C17.6627907,80.155 16.0674419,78.43 16.0674419,76.36 L16.0674419,76.36 Z" id="Shape"></path>
                <path d="M47.0627907,114.08 C47.0627907,114.655 47.5186047,115 47.9744186,115 C48.4302326,115 48.8860465,114.54 48.8860465,114.08 L48.8860465,66.93 C48.8860465,66.355 48.4302326,66.01 47.9744186,66.01 C47.5186047,66.01 47.0627907,66.47 47.0627907,66.93 L47.0627907,114.08 L47.0627907,114.08 Z" id="Shape"></path>
                <path d="M30.1976744,104.65 C30.1976744,104.075 29.7418605,103.73 29.2860465,103.73 C28.8302326,103.73 28.3744186,104.19 28.3744186,104.65 L28.3744186,114.08 C28.3744186,114.655 28.8302326,115 29.2860465,115 C29.7418605,115 30.1976744,114.54 30.1976744,114.08 L30.1976744,104.65 L30.1976744,104.65 Z" id="Shape"></path>
                <path d="M20.7395349,57.5 C20.7395349,56.925 20.2837209,56.58 19.827907,56.58 C19.372093,56.58 18.9162791,57.04 18.9162791,57.5 L18.9162791,85.79 C18.9162791,86.365 19.372093,86.71 19.827907,86.71 C20.2837209,86.71 20.7395349,86.25 20.7395349,85.79 L20.7395349,57.5 L20.7395349,57.5 Z" id="Shape"></path>
                <path d="M30.1976744,57.5 C30.1976744,56.925 29.7418605,56.58 29.2860465,56.58 C28.8302326,56.58 28.3744186,57.04 28.3744186,57.5 L28.3744186,71.645 C28.3744186,72.22 28.8302326,72.565 29.2860465,72.565 C29.7418605,72.565 30.1976744,72.105 30.1976744,71.645 L30.1976744,57.5 L30.1976744,57.5 Z" id="Shape"></path>
                <path d="M39.427907,52.21 C39.0860465,51.865 38.5162791,51.865 38.0604651,52.21 C37.7186047,52.555 37.7186047,53.13 38.0604651,53.59 L42.6186047,58.19 C42.9604651,58.535 43.5302326,58.535 43.9860465,58.19 C44.327907,57.845 44.327907,57.27 43.9860465,56.81 L39.427907,52.21 L39.427907,52.21 Z" id="Shape"></path>
                <path d="M48.3162791,61.755 C47.7465116,60.605 47.0627907,59.8 43.9860465,56.81 C43.644186,56.465 43.0744186,56.465 42.6186047,56.81 C42.2767442,57.155 42.2767442,57.73 42.6186047,58.19 C45.4674419,61.065 46.1511628,61.755 46.6069767,62.675 C47.0627907,63.48 47.0627907,64.17 47.0627907,66.93 C47.0627907,67.505 47.5186047,67.85 47.9744186,67.85 C48.4302326,67.85 48.8860465,67.39 48.8860465,66.93 C49,63.825 48.8860465,63.02 48.3162791,61.755 L48.3162791,61.755 Z" id="Shape"></path>
                <path d="M29.5139535,99.475 C28.944186,98.325 28.2604651,97.52 25.1837209,94.53 C24.8418605,94.185 24.272093,94.185 23.8162791,94.53 C23.4744186,94.875 23.4744186,95.45 23.8162791,95.91 C26.6651163,98.785 27.3488372,99.475 27.8046512,100.395 C28.2604651,101.2 28.2604651,101.89 28.2604651,104.65 C28.2604651,105.225 28.7162791,105.57 29.172093,105.57 C29.627907,105.57 30.0837209,105.11 30.0837209,104.65 C30.1976744,101.545 30.0837209,100.74 29.5139535,99.475 L29.5139535,99.475 Z" id="Shape"></path>
                <path d="M19.4860465,90.965 C20.055814,92.115 20.7395349,92.92 23.8162791,95.91 C24.1581395,96.255 24.727907,96.255 25.1837209,95.91 C25.5255814,95.565 25.5255814,94.99 25.1837209,94.53 C22.3348837,91.655 21.6511628,90.965 21.1953488,90.045 C20.7395349,89.24 20.7395349,88.55 20.7395349,85.79 C20.7395349,85.215 20.2837209,84.87 19.827907,84.87 C19.372093,84.87 18.9162791,85.33 18.9162791,85.79 C18.8023256,88.895 18.9162791,89.7 19.4860465,90.965 L19.4860465,90.965 Z" id="Shape"></path>
                <path d="M19.827907,20.7 C23.3604651,20.7 26.6651163,22.08 29.172093,24.61 C29.5139535,24.955 30.0837209,24.955 30.5395349,24.61 C30.8813953,24.265 30.8813953,23.69 30.5395349,23.23 C27.6906977,20.47 23.9302326,18.86 19.827907,18.86 C15.7255814,18.86 11.9651163,20.47 9.11627907,23.23 C8.7744186,23.575 8.7744186,24.15 9.11627907,24.61 C9.45813953,24.955 10.027907,24.955 10.4837209,24.61 C12.8767442,22.195 16.2953488,20.7 19.827907,20.7 L19.827907,20.7 Z" id="Shape"></path>
                <path d="M19.827907,25.415 C22.1069767,25.415 24.272093,26.335 25.8674419,27.945 C26.2093023,28.29 26.7790698,28.29 27.2348837,27.945 C27.5767442,27.6 27.5767442,27.025 27.2348837,26.565 C25.2976744,24.61 22.6767442,23.575 19.9418605,23.575 C17.2069767,23.575 14.5860465,24.725 12.6488372,26.565 C12.3069767,26.91 12.3069767,27.485 12.6488372,27.945 C12.9906977,28.29 13.5604651,28.29 14.0162791,27.945 C15.3837209,26.335 17.5488372,25.415 19.827907,25.415 L19.827907,25.415 Z" id="Shape"></path>
                <path d="M19.827907,30.13 C20.8534884,30.13 21.7651163,30.475 22.4488372,31.28 C22.7906977,31.625 23.3604651,31.625 23.8162791,31.28 C24.272093,30.935 24.1581395,30.36 23.8162791,29.9 C22.7906977,28.865 21.3093023,28.29 19.827907,28.29 C18.3465116,28.29 16.8651163,28.865 15.8395349,29.9 C15.4976744,30.245 15.4976744,30.82 15.8395349,31.28 C16.1813953,31.74 16.7511628,31.625 17.2069767,31.28 C17.7767442,30.59 18.8023256,30.13 19.827907,30.13 L19.827907,30.13 Z" id="Shape"></path>
                <path d="M14.1302326,76.36 C14.1302326,76.935 14.5860465,77.28 15.0418605,77.28 C15.6116279,77.28 15.9534884,76.82 15.9534884,76.36 L15.9534884,71.645 C15.9534884,71.07 15.4976744,70.725 15.0418605,70.725 C14.472093,70.725 14.1302326,71.185 14.1302326,71.645 L14.1302326,76.36 L14.1302326,76.36 Z" id="Shape"></path>
                <path d="M28.2604651,76.36 C28.2604651,76.935 28.7162791,77.28 29.172093,77.28 C29.627907,77.28 30.0837209,76.82 30.0837209,76.36 L30.0837209,71.645 C30.0837209,71.07 29.627907,70.725 29.172093,70.725 C28.7162791,70.725 28.2604651,71.185 28.2604651,71.645 L28.2604651,76.36 L28.2604651,76.36 Z" id="Shape"></path>
                <path d="M5.69767442,61.295 L6.60930233,62.215 L6.60930233,10.35 L5.69767442,11.27 L33.9581395,11.27 L32.9325581,10.35 L32.9325581,62.215 L33.844186,61.295 L29.172093,61.295 C28.6023256,61.295 28.2604651,61.755 28.2604651,62.215 C28.2604651,62.79 28.7162791,63.135 29.172093,63.135 L33.844186,63.135 C34.4139535,63.135 34.755814,62.675 34.755814,62.215 L34.755814,10.35 C34.755814,9.775 34.3,9.43 33.844186,9.43 L5.69767442,9.43 C5.12790698,9.43 4.67209302,9.89 4.67209302,10.35 L4.67209302,62.215 C4.67209302,62.79 5.12790698,63.135 5.58372093,63.135 L19.7139535,63.135 C20.2837209,63.135 20.6255814,62.675 20.6255814,62.215 C20.6255814,61.64 20.1697674,61.295 19.7139535,61.295 L5.69767442,61.295 L5.69767442,61.295 Z" id="Shape"></path>
                <path d="M5.69767442,70.725 C3.64651163,70.725 1.9372093,69 1.9372093,66.93 L1.9372093,5.635 C1.9372093,3.565 3.64651163,1.84 5.69767442,1.84 L33.9581395,1.84 C36.0093023,1.84 37.7186047,3.565 37.7186047,5.635 L37.7186047,66.93 C37.7186047,69 36.0093023,70.725 33.9581395,70.725 L29.2860465,70.725 C28.7162791,70.725 28.3744186,71.185 28.3744186,71.645 C28.3744186,72.105 28.8302326,72.565 29.2860465,72.565 L33.9581395,72.565 C37.0348837,72.565 39.655814,70.035 39.655814,66.93 L39.655814,5.635 C39.655814,2.53 37.1488372,0 33.9581395,0 L5.69767442,0 C2.50697674,0 0,2.53 0,5.635 L0,66.93 C0,70.035 2.50697674,72.565 5.69767442,72.565 L19.827907,72.565 C20.3976744,72.565 20.7395349,72.105 20.7395349,71.645 C20.7395349,71.185 20.2837209,70.725 19.827907,70.725 L5.69767442,70.725 L5.69767442,70.725 Z" id="Shape"></path>
                <path d="M24.5,6.555 C25.0697674,6.555 25.4116279,6.095 25.4116279,5.635 C25.4116279,5.175 25.0697674,4.715 24.5,4.715 L15.0418605,4.715 C14.472093,4.715 14.1302326,5.175 14.1302326,5.635 C14.1302326,6.095 14.5860465,6.555 15.0418605,6.555 L24.5,6.555 L24.5,6.555 Z" id="Shape"></path>
                <path d="M24.5,53.705 C26.5511628,53.705 28.2604651,55.43 28.2604651,57.5 C28.2604651,58.075 28.7162791,58.42 29.172093,58.42 C29.627907,58.42 30.0837209,57.96 30.0837209,57.5 C30.0837209,54.395 27.5767442,51.865 24.3860465,51.865 C21.1953488,51.865 18.6883721,54.395 18.6883721,57.5 C18.6883721,58.075 19.144186,58.42 19.6,58.42 C20.055814,58.42 20.5116279,57.96 20.5116279,57.5 C20.7395349,55.43 22.4488372,53.705 24.5,53.705 L24.5,53.705 Z" id="Shape"></path>
            </g>
        </g>
    </g>
</svg>