<?xml version="1.0" encoding="utf-8"?>
<!-- Generator: Adobe Illustrator 16.0.0, SVG Export Plug-In . SVG Version: 6.00 Build 0)  -->
<!DOCTYPE svg PUBLIC "-//W3C//DTD SVG 1.1//EN" "http://www.w3.org/Graphics/SVG/1.1/DTD/svg11.dtd">
<svg version="1.1" id="Capa_1" xmlns="http://www.w3.org/2000/svg" xmlns:xlink="http://www.w3.org/1999/xlink" x="0px" y="0px"
	 width="107.158px" height="97.719px" viewBox="-32.242 0.805 107.158 97.719"
	 enable-background="new -32.242 0.805 107.158 97.719" xml:space="preserve">
<g>
	<g>
		<path fill="#339999" d="M-4.198,59.302l-10.842-10.574L-4.6,38.554c0.401-0.403,0.669-0.804,0.669-1.473s-0.268-1.07-0.669-1.473
			l-11.914-11.646c-0.669-0.67-1.472-0.804-2.276-0.401c-0.803,0.401-1.204,1.071-1.204,2.007V43.64l-8.569-8.433
			c-0.803-0.802-2.276-0.802-2.944,0c-0.803,0.804-0.803,2.275,0,2.944l10.575,10.443L-31.64,59.168
			c-0.803,0.802-0.803,2.276,0,2.945c0.802,0.803,2.275,0.803,2.944,0l8.567-8.434v19.145c0,0.802,0.536,1.604,1.205,2.006
			c0.268,0.134,0.669,0.134,0.802,0.134c0.67,0,1.072-0.268,1.474-0.669l12.315-12.048c0.401-0.401,0.669-0.803,0.669-1.475
			C-3.529,60.104-3.797,59.702-4.198,59.302z M-15.709,30.388l6.693,6.693l-6.693,6.693V30.388z M-15.709,67.734V53.68l7.094,6.825
			L-15.709,67.734z"/>
	</g>
</g>
<path fill="#339999" d="M43.458,4.285c15.525,0,28.109,12.583,28.109,28.112c0,2.542-0.401,5.086-1.07,7.495
	c-0.268,0.938-0.669,2.008-0.937,2.812l-0.802,1.874L43.458,91.295L18.157,44.578l-0.804-1.874
	c-0.401-0.938-0.669-1.875-0.936-2.812c-0.669-2.409-1.072-4.953-1.072-7.495C15.345,16.867,27.93,4.285,43.458,4.285 M43.458,0.805
	c-17.401,0-31.593,14.188-31.593,31.591c0,2.944,0.401,5.754,1.205,8.433c0.267,1.07,0.67,2.142,1.071,3.212l0.936,2.142
	l28.381,52.341l28.377-52.608l0.802-2.008c0.401-1.07,0.803-2.142,1.07-3.346c0.807-2.678,1.208-5.489,1.208-8.433
	C75.049,14.859,60.86,0.805,43.458,0.805L43.458,0.805z"/>
<path fill="#339999" d="M43.458,21.554c5.755,0,10.44,4.685,10.44,10.441c0,5.755-4.686,10.441-10.44,10.441
	c-5.758,0-10.442-4.687-10.442-10.441C33.016,26.239,37.7,21.554,43.458,21.554 M43.458,18.073c-7.764,0-13.923,6.292-13.923,13.922
	c0,7.629,6.159,14.055,13.923,14.055c7.765,0,13.921-6.292,13.921-13.921C57.379,24.499,51.223,18.073,43.458,18.073L43.458,18.073z
	"/>
</svg>
