<?xml version="1.0" encoding="UTF-8" standalone="no"?>
<svg width="75px" height="115px" viewBox="0 0 75 115" version="1.1" xmlns="http://www.w3.org/2000/svg" xmlns:xlink="http://www.w3.org/1999/xlink">
    <!-- Generator: Sketch 40 (33762) - http://www.bohemiancoding.com/sketch -->
    <title>gps blue</title>
    <desc>Created with Sketch.</desc>
    <defs></defs>
    <g id="Page-1" stroke="none" stroke-width="1" fill="none" fill-rule="evenodd">
        <g id="gps-blue" fill="#2BB0AF">
            <path d="M48,45.6229508 L39.75,37.5163934 L47.71875,29.692623 C48,29.4098361 48.1875,29.0327869 48.1875,28.5614754 C48.1875,28.0901639 48,27.7131148 47.71875,27.4303279 L38.625,18.4754098 C38.15625,18.0040984 37.5,17.9098361 36.84375,18.192623 C36.28125,18.4754098 35.90625,19.0409836 35.90625,19.7008197 L35.90625,33.6516393 L29.34375,27.147541 C28.6875,26.4877049 27.65625,26.5819672 27.09375,27.147541 C26.4375,27.807377 26.53125,28.8442623 27.09375,29.4098361 L35.15625,37.4221311 L27,45.5286885 C26.34375,46.1885246 26.34375,47.2254098 27,47.7909836 C27.65625,48.4508197 28.6875,48.4508197 29.25,47.7909836 L35.8125,41.2868852 L35.8125,55.9918033 C35.8125,56.6516393 36.1875,57.2172131 36.75,57.5 C36.9375,57.5942623 37.21875,57.5942623 37.40625,57.5942623 C37.875,57.5942623 38.25,57.4057377 38.53125,57.1229508 L47.90625,47.8852459 C48.1875,47.602459 48.375,47.2254098 48.375,46.7540984 C48.5625,46.2827869 48.375,45.9057377 48,45.6229508 L48,45.6229508 Z M39.28125,23.4713115 L44.4375,28.5614754 L39.28125,33.6516393 L39.28125,23.4713115 L39.28125,23.4713115 Z M39.28125,52.1270492 L39.28125,41.3811475 L44.71875,46.6598361 L39.28125,52.1270492 L39.28125,52.1270492 Z" id="Shape"></path>
            <path d="M37.59375,4.05327869 C55.6875,4.05327869 70.3125,18.852459 70.3125,36.9508197 C70.3125,39.9672131 69.9375,42.8893443 69.09375,45.7172131 C68.8125,46.8483607 68.34375,48.0737705 67.96875,49.0163934 L67.03125,51.1844262 L37.5,106.045082 L7.96875,51.2786885 L6.9375,49.0163934 C6.5625,47.9795082 6.1875,46.8483607 5.8125,45.7172131 C5.0625,42.8893443 4.59375,39.8729508 4.59375,36.9508197 C4.78125,18.852459 19.5,4.05327869 37.59375,4.05327869 L37.59375,4.05327869 Z M37.59375,0 C17.25,0 0.75,16.5901639 0.75,37.045082 C0.75,40.4385246 1.21875,43.8319672 2.0625,46.942623 C2.4375,48.1680328 2.8125,49.3934426 3.28125,50.6188525 L4.40625,53.1639344 L37.5,114.717213 L70.6875,53.0696721 L71.71875,50.807377 C72.1875,49.5819672 72.65625,48.2622951 73.03125,46.942623 C73.875,43.8319672 74.34375,40.4385246 74.34375,37.045082 C74.25,16.5901639 57.9375,0 37.59375,0 L37.59375,0 L37.59375,0 Z" id="Shape"></path>
        </g>
    </g>
</svg>